<svg width="24" height="23" viewBox="0 0 24 23" fill="none" xmlns="http://www.w3.org/2000/svg">
<path d="M13.1119 0H10.6226V2.48702H13.1119V0Z" fill="#283618"/>
<path d="M3.15924 17.3815H0.669922V19.8685H3.15924V17.3815Z" fill="#283618"/>
<path d="M5.6485 19.8685H3.15918V22.3555H5.6485V19.8685Z" fill="#283618"/>
<path d="M5.6485 17.3815H3.15918V19.8685H5.6485V17.3815Z" fill="#283618"/>
<path d="M8.13532 17.3815H5.646V19.8685H8.13532V17.3815Z" fill="#283618"/>
<path d="M10.6251 17.3815H8.13574V19.8685H10.6251V17.3815Z" fill="#283618"/>
<path d="M13.1119 17.3815H10.6226V19.8685H13.1119V17.3815Z" fill="#283618"/>
<path d="M8.13532 19.8685H5.646V22.3555H8.13532V19.8685Z" fill="#283618"/>
<path d="M10.6251 19.8685H8.13574V22.3555H10.6251V19.8685Z" fill="#283618"/>
<path d="M13.1119 19.8685H10.6226V22.3555H13.1119V19.8685Z" fill="#283618"/>
<path d="M15.6011 19.8685H13.1118V22.3555H15.6011V19.8685Z" fill="#283618"/>
<path d="M15.6011 0H13.1118V2.48702H15.6011V0Z" fill="#283618"/>
<path d="M15.6011 2.48706H13.1118V4.97408H15.6011V2.48706Z" fill="#283618"/>
<path d="M18.0884 4.974H15.5991V7.46103H18.0884V4.974Z" fill="#283618"/>
<path d="M18.0884 2.48706H15.5991V4.97408H18.0884V2.48706Z" fill="#283618"/>
<path d="M15.6011 4.974H13.1118V7.46103H15.6011V4.974Z" fill="#283618"/>
<path d="M20.5777 7.42188H18.0884V9.90891H20.5777V7.42188Z" fill="#283618"/>
<path d="M18.0884 7.46106H15.5991V9.94808H18.0884V7.46106Z" fill="#283618"/>
<path d="M23.0645 12.3983H20.5752V14.8853H23.0645V12.3983Z" fill="#283618"/>
<path d="M20.5777 12.3983H18.0884V14.8853H20.5777V12.3983Z" fill="#283618"/>
<path d="M23.0645 14.8853H20.5752V17.3723H23.0645V14.8853Z" fill="#283618"/>
<path d="M20.5777 17.3447H18.0884V19.8317H20.5777V17.3447Z" fill="#283618"/>
<path d="M20.5777 14.8853H18.0884V17.3723H20.5777V14.8853Z" fill="#283618"/>
<path d="M20.5777 9.91125H18.0884V12.3983H20.5777V9.91125Z" fill="#283618"/>
<path d="M18.0884 9.91125H15.5991V12.3983H18.0884V9.91125Z" fill="#283618"/>
<path d="M8.13532 7.46106H5.646V9.94808H8.13532V7.46106Z" fill="#283618"/>
<path d="M3.15924 9.94812H0.669922V12.4351H3.15924V9.94812Z" fill="#283618"/>
<path d="M5.6485 9.94812H3.15918V12.4351H5.6485V9.94812Z" fill="#283618"/>
<path d="M10.6251 9.94812H8.13574V12.4351H10.6251V9.94812Z" fill="#283618"/>
<path d="M8.13532 9.94812H5.646V12.4351H8.13532V9.94812Z" fill="#283618"/>
<path d="M3.15924 12.4351H0.669922V14.9221H3.15924V12.4351Z" fill="#283618"/>
<path d="M5.6485 12.4351H3.15918V14.9221H5.6485V12.4351Z" fill="#283618"/>
<path d="M10.6251 12.4351H8.13574V14.9221H10.6251V12.4351Z" fill="#283618"/>
<path d="M8.13532 12.4351H5.646V14.9221H8.13532V12.4351Z" fill="#283618"/>
<path d="M13.1119 9.94812H10.6226V12.4351H13.1119V9.94812Z" fill="#283618"/>
<path d="M13.1119 12.4351H10.6226V14.9221H13.1119V12.4351Z" fill="#283618"/>
<path d="M10.6251 7.46106H8.13574V9.94808H10.6251V7.46106Z" fill="#283618"/>
<path d="M8.13532 4.9718H5.646V7.45882H8.13532V4.9718Z" fill="#283618"/>
<path d="M5.6485 7.46106H3.15918V9.94808H5.6485V7.46106Z" fill="#283618"/>
</svg>
