<svg width="22" height="25" viewBox="0 0 22 25" fill="none" xmlns="http://www.w3.org/2000/svg">
<path d="M2.44896 9.79626H0V12.2448H2.44896V9.79626Z" fill="#283618"/>
<path d="M2.44896 7.34778H0V9.79627H2.44896V7.34778Z" fill="#283618"/>
<path d="M4.89818 4.89709H2.44922V7.34559H4.89818V4.89709Z" fill="#283618"/>
<path d="M7.34447 2.44849H4.89551V4.89698H7.34447V2.44849Z" fill="#283618"/>
<path d="M9.7932 0H7.34424V2.44849H9.7932V0Z" fill="#283618"/>
<path d="M12.2244 0H9.77539V2.44849H12.2244V0Z" fill="#283618"/>
<path d="M2.44896 12.2446H0V14.6931H2.44896V12.2446Z" fill="#283618"/>
<path d="M2.44896 14.6932H0V17.1417H2.44896V14.6932Z" fill="#283618"/>
<path d="M4.89818 17.1486H2.44922V19.5971H4.89818V17.1486Z" fill="#283618"/>
<path d="M7.34447 19.5972H4.89551V22.0457H7.34447V19.5972Z" fill="#283618"/>
<path d="M9.77562 22.0454H7.32666V24.4939H9.77562V22.0454Z" fill="#283618"/>
<path d="M12.1721 2.44849H9.72314V4.89698H12.1721V2.44849Z" fill="#283618"/>
<path d="M12.1721 4.89709H9.72314V7.34559H12.1721V4.89709Z" fill="#283618"/>
<path d="M12.1721 7.34778H9.72314V9.79627H12.1721V7.34778Z" fill="#283618"/>
<path d="M9.72582 9.79858H7.27686V12.2471H9.72582V9.79858Z" fill="#283618"/>
<path d="M14.6711 9.79626H12.2222V12.2448H14.6711V9.79626Z" fill="#283618"/>
<path d="M12.2244 22.0454H9.77539V24.4939H12.2244V22.0454Z" fill="#283618"/>
<path d="M12.2244 19.5972H9.77539V22.0457H12.2244V19.5972Z" fill="#283618"/>
<path d="M12.2244 17.1486H9.77539V19.5971H12.2244V17.1486Z" fill="#283618"/>
<path d="M22.0002 12.2446H19.5513V14.6931H22.0002V12.2446Z" fill="#283618"/>
<path d="M22.0002 9.79626H19.5513V12.2448H22.0002V9.79626Z" fill="#283618"/>
<path d="M14.6711 14.7001H12.2222V17.1486H14.6711V14.7001Z" fill="#283618"/>
<path d="M17.1203 12.2493H14.6714V14.6978H17.1203V12.2493Z" fill="#283618"/>
<path d="M19.551 9.79626H17.1021V12.2448H19.551V9.79626Z" fill="#283618"/>
<path d="M22.0002 7.34778H19.5513V9.79627H22.0002V7.34778Z" fill="#283618"/>
<path d="M19.5193 4.89709H17.0703V7.34559H19.5193V4.89709Z" fill="#283618"/>
<path d="M17.072 2.44849H14.623V4.89698H17.072V2.44849Z" fill="#283618"/>
<path d="M14.6208 0H12.1719V2.44849H14.6208V0Z" fill="#283618"/>
<path d="M14.6711 22.0454H12.2222V24.4939H14.6711V22.0454Z" fill="#283618"/>
<path d="M17.1272 19.5972H14.6782V22.0457H17.1272V19.5972Z" fill="#283618"/>
<path d="M19.5764 17.1486H17.1274V19.5971H19.5764V17.1486Z" fill="#283618"/>
<path d="M22.0002 14.6932H19.5513V17.1417H22.0002V14.6932Z" fill="#283618"/>
<path d="M9.76 14.7001H7.31104V17.1486H9.76V14.7001Z" fill="#283618"/>
<path d="M7.31078 12.2446H4.86182V14.6931H7.31078V12.2446Z" fill="#283618"/>
<path d="M4.89818 9.79626H2.44922V12.2448H4.89818V9.79626Z" fill="#283618"/>
</svg>
