<svg width="23" height="22" viewBox="0 0 23 22" fill="none" xmlns="http://www.w3.org/2000/svg">
<path d="M11.2229 2.9463L8.98145 3.30847L9.3469 5.52987L11.5884 5.1677L11.2229 2.9463Z" fill="#283618"/>
<path d="M15.2932 13.6923L13.0518 14.0544L13.4172 16.2758L15.6587 15.9137L15.2932 13.6923Z" fill="#283618"/>
<path d="M13.4153 16.2734L11.1738 16.6356L11.5393 18.857L13.7808 18.4948L13.4153 16.2734Z" fill="#283618"/>
<path d="M13.8313 4.80482L11.5898 5.16699L11.9553 7.38839L14.1968 7.02622L13.8313 4.80482Z" fill="#283618"/>
<path d="M14.5623 9.24842L12.3208 9.6106L12.6863 11.832L14.9277 11.4698L14.5623 9.24842Z" fill="#283618"/>
<path d="M14.927 11.4706L12.6855 11.8328L13.051 14.0542L15.2925 13.692L14.927 11.4706Z" fill="#283618"/>
<path d="M6.32791 15.1408L4.08643 15.5029L4.45188 17.7243L6.69336 17.3622L6.32791 15.1408Z" fill="#283618"/>
<path d="M19.7747 12.9663L17.5332 13.3285L17.8987 15.5499L20.1401 15.1877L19.7747 12.9663Z" fill="#283618"/>
<path d="M8.20486 12.5555L5.96338 12.9177L6.32883 15.1391L8.57031 14.7769L8.20486 12.5555Z" fill="#283618"/>
<path d="M10.4446 12.1926L8.20312 12.5548L8.56857 14.7762L10.8101 14.414L10.4446 12.1926Z" fill="#283618"/>
<path d="M12.6844 11.8317L10.4429 12.1938L10.8083 14.4152L13.0498 14.0531L12.6844 11.8317Z" fill="#283618"/>
<path d="M17.1682 11.1074L14.9268 11.4696L15.2922 13.691L17.5337 13.3288L17.1682 11.1074Z" fill="#283618"/>
<path d="M18.3137 4.08289L16.0723 4.44507L16.4377 6.66647L18.6792 6.30429L18.3137 4.08289Z" fill="#283618"/>
<path d="M7.47244 8.11414L5.23096 8.47632L5.59641 10.6977L7.83789 10.3355L7.47244 8.11414Z" fill="#283618"/>
<path d="M4.86599 6.2533L2.62451 6.61548L2.98996 8.83688L5.23144 8.4747L4.86599 6.2533Z" fill="#283618"/>
<path d="M16.4363 6.66578L14.1948 7.02795L14.5603 9.24936L16.8018 8.88718L16.4363 6.66578Z" fill="#283618"/>
<path d="M14.1956 7.02698L11.9541 7.38916L12.3196 9.61056L14.561 9.24839L14.1956 7.02698Z" fill="#283618"/>
<path d="M11.9558 7.38978L9.71436 7.75195L10.0798 9.97335L12.3213 9.61118L11.9558 7.38978Z" fill="#283618"/>
<path d="M9.71462 7.75294L7.47314 8.11511L7.83859 10.3365L10.0801 9.97434L9.71462 7.75294Z" fill="#283618"/>
<path d="M18.312 4.08259L18.6779 6.30414L19.4076 10.7473L19.7735 12.9667L20.1394 15.1883L22.381 14.8257L22.0151 12.6062L21.6513 10.3846L21.2854 8.16308L20.9195 5.94153L20.5536 3.71997L18.312 4.08259Z" fill="#283618"/>
<path d="M17.949 1.86085L15.7075 2.22302L16.073 4.44442L18.3145 4.08225L17.949 1.86085Z" fill="#283618"/>
<path d="M20.1389 15.188L17.8975 15.5502L18.2629 17.7716L20.5044 17.4094L20.1389 15.188Z" fill="#283618"/>
<path d="M13.7809 18.4956L11.5393 18.8582L9.29764 19.2208L7.05811 19.5835L7.4219 21.805L9.66353 21.4424L11.9052 21.0798L14.1468 20.7172L16.3884 20.3566L18.6301 19.994L18.2642 17.7725L16.0225 18.1351L13.7809 18.4956Z" fill="#283618"/>
<path d="M15.3397 3.2714e-05L4.13232 1.81091L4.49777 4.03231L15.7052 2.22143L15.3397 3.2714e-05Z" fill="#283618"/>
<path d="M4.49929 4.0337L2.25781 4.39587L2.62326 6.61728L4.86474 6.2551L4.49929 4.0337Z" fill="#283618"/>
<path d="M6.69168 17.3606L4.4502 17.7228L4.81565 19.9442L7.05713 19.582L6.69168 17.3606Z" fill="#283618"/>
<path d="M3.72067 13.2814L3.35477 11.0598L2.98888 8.83826L2.62298 6.6167L0.381348 6.97932L0.747243 9.20087L1.11314 11.4224L1.47693 13.644L1.84283 15.8635L2.20872 18.085L4.45036 17.7224L4.08446 15.5029L3.72067 13.2814Z" fill="#283618"/>
</svg>
