<svg width="22" height="23" viewBox="0 0 22 23" fill="none" xmlns="http://www.w3.org/2000/svg">
<path d="M10.0312 14.0192H8.02832V16.0216H10.0312V14.0192Z" fill="#283618"/>
<path d="M10.0312 16.0236H8.02832V18.026H10.0312V16.0236Z" fill="#283618"/>
<path d="M12.0248 16.0236H10.022V18.026H12.0248V16.0236Z" fill="#283618"/>
<path d="M14.0165 16.0236H12.0137V18.026H14.0165V16.0236Z" fill="#283618"/>
<path d="M10.0312 18.0278H8.02832V20.0303H10.0312V18.0278Z" fill="#283618"/>
<path d="M8.02972 16.0236H6.02686V18.026H8.02972V16.0236Z" fill="#283618"/>
<path d="M6.00677 13.9988H4.00391V16.0013H6.00677V13.9988Z" fill="#283618"/>
<path d="M12.0248 18.0278H10.022V20.0303H12.0248V18.0278Z" fill="#283618"/>
<path d="M14.0165 18.0278H12.0137V20.0303H14.0165V18.0278Z" fill="#283618"/>
<path d="M14.0165 14.0192H12.0137V16.0216H14.0165V14.0192Z" fill="#283618"/>
<path d="M12.0248 14.0192H10.022V16.0216H12.0248V14.0192Z" fill="#283618"/>
<path d="M8.02972 12.0131H6.02686V14.0155H8.02972V12.0131Z" fill="#283618"/>
<path d="M10.0312 12.0167H8.02832V14.0192H10.0312V12.0167Z" fill="#283618"/>
<path d="M12.0248 12.0167H10.022V14.0192H12.0248V12.0167Z" fill="#283618"/>
<path d="M14.0165 12.0167H12.0137V14.0192H14.0165V12.0167Z" fill="#283618"/>
<path d="M16.0117 12.0167H14.0088V14.0192H16.0117V12.0167Z" fill="#283618"/>
<path d="M8.02972 10.0123H6.02686V12.0148H8.02972V10.0123Z" fill="#283618"/>
<path d="M10.0312 10.0142H8.02832V12.0166H10.0312V10.0142Z" fill="#283618"/>
<path d="M12.0248 10.0142H10.022V12.0166H12.0248V10.0142Z" fill="#283618"/>
<path d="M14.0165 10.0142H12.0137V12.0166H14.0165V10.0142Z" fill="#283618"/>
<path d="M16.0117 10.0142H14.0088V12.0166H16.0117V10.0142Z" fill="#283618"/>
<path d="M8.02972 8.01733H6.02686V10.0198H8.02972V8.01733Z" fill="#283618"/>
<path d="M10.0312 8.01917H8.02832V10.0216H10.0312V8.01917Z" fill="#283618"/>
<path d="M8.02972 6.01294H6.02686V8.01542H8.02972V6.01294Z" fill="#283618"/>
<path d="M12.0248 8.01917H10.022V10.0216H12.0248V8.01917Z" fill="#283618"/>
<path d="M14.0165 8.01917H12.0137V10.0216H14.0165V8.01917Z" fill="#283618"/>
<path d="M16.0117 8.01917H14.0088V10.0216H16.0117V8.01917Z" fill="#283618"/>
<path d="M16.0117 6.0166H14.0088V8.01908H16.0117V6.0166Z" fill="#283618"/>
<path d="M19.999 5.99072V7.9932V11.9982V14.0006V16.0031H22V14.0006V11.9982V9.99569V7.9932V5.99072H19.999Z" fill="#283618"/>
<path d="M20.0083 3.99011H18.0073V5.99259H20.0083V3.99011Z" fill="#283618"/>
<path d="M18.0054 1.995H16.0044V3.99748H18.0054V1.995Z" fill="#283618"/>
<path d="M17.9961 18.0074H15.9951V20.0099H17.9961V18.0074Z" fill="#283618"/>
<path d="M19.9991 16.0051H17.998V18.0076H19.9991V16.0051Z" fill="#283618"/>
<path d="M12.0079 20.0304H10.0069H8.00589H6.00488V22.0329H8.00589H10.0069H12.0079H14.0089H16.0099V20.0304H14.0089H12.0079Z" fill="#283618"/>
<path d="M16.0026 0H5.99756V2.00248H16.0026V0Z" fill="#283618"/>
<path d="M3.99271 3.98645H1.9917V5.98893H3.99271V3.98645Z" fill="#283618"/>
<path d="M5.99564 1.98206H3.99463V3.98454H5.99564V1.98206Z" fill="#283618"/>
<path d="M4.00394 16.0012H2.00293V18.0037H4.00394V16.0012Z" fill="#283618"/>
<path d="M6.01224 18.0278H4.01123V20.0303H6.01224V18.0278Z" fill="#283618"/>
<path d="M2.00101 11.9982V9.99569V7.99135V5.99072H0V7.99135V9.99569V11.9982V13.9988V16.0013H2.00101V13.9988V11.9982Z" fill="#283618"/>
</svg>
