<svg width="23" height="22" viewBox="0 0 23 22" fill="none" xmlns="http://www.w3.org/2000/svg">
<path d="M19.732 22V19.5553H22.1851C22.1851 19.5553 22.1943 19.5553 22.1988 19.5553V2.4379L19.732 2.44469V0H2.46679V2.44469H0V19.5553H2.46679V22M19.732 19.5553H2.46679V2.44469H19.732V19.5553Z" fill="#283618"/>
<path d="M7.40267 4.89172H4.93359V7.33642H7.40267V4.89172Z" fill="#283618"/>
<path d="M7.40267 9.78101H4.93359V12.2257H7.40267V9.78101Z" fill="#283618"/>
<path d="M14.8011 9.78101H12.332V12.2257H14.8011V9.78101Z" fill="#283618"/>
<path d="M17.2699 9.77649H14.8008V12.2212H17.2699V9.77649Z" fill="#283618"/>
<path d="M17.2699 12.2212H14.8008V14.6659H17.2699V12.2212Z" fill="#283618"/>
<path d="M17.2699 14.6636H14.8008V17.1083H17.2699V14.6636Z" fill="#283618"/>
<path d="M7.40267 12.2212H4.93359V14.6659H7.40267V12.2212Z" fill="#283618"/>
<path d="M7.40267 14.6636H4.93359V17.1083H7.40267V14.6636Z" fill="#283618"/>
<path d="M12.3343 9.78101H9.86523V12.2257H12.3343V9.78101Z" fill="#283618"/>
<path d="M12.3343 12.2212H9.86523V14.6659H12.3343V12.2212Z" fill="#283618"/>
<path d="M12.3343 14.6636H9.86523V17.1083H12.3343V14.6636Z" fill="#283618"/>
</svg>
