<svg width="22" height="22" viewBox="0 0 22 22" fill="none" xmlns="http://www.w3.org/2000/svg">
<g clip-path="url(#clip0_1467_225)">
<path d="M19.5555 4.88892V7.33336H17.1111V4.88892H14.6666V7.33336H12.2222V9.7778H14.6666V12.2222H17.1111H19.5555V14.6667V17.1089H21.9999V14.6667V12.2222V9.7778V7.33336V4.88892H19.5555Z" fill="#283618"/>
<path d="M19.5558 2.44446H17.1113V4.8889H19.5558V2.44446Z" fill="#283618"/>
<path d="M19.5558 17.1089H17.1113V19.5533H19.5558V17.1089Z" fill="#283618"/>
<path d="M12.222 19.5555H9.77756H7.33312H4.88867V22H7.33312H9.77756H12.222H14.6665H17.1109V19.5555H14.6665H12.222Z" fill="#283618"/>
<path d="M7.33312 4.88889H4.88867V7.33333V9.77778H7.33312V7.33333H9.77756V4.88889V2.44444H12.222H14.6665H17.1109V0H14.6665H12.222H9.77756H7.33312H4.88867V2.44444H7.33312V4.88889Z" fill="#283618"/>
<path d="M7.33312 14.6666V17.1088H9.77756V14.6666V12.2222H7.33312H4.88867V14.6666H7.33312Z" fill="#283618"/>
<path d="M4.88878 2.44446H2.44434V4.8889H4.88878V2.44446Z" fill="#283618"/>
<path d="M4.88878 17.1089H2.44434V19.5533H4.88878V17.1089Z" fill="#283618"/>
<path d="M2.44444 12.2222H4.88889V9.7778H2.44444V7.33336V4.88892H0V7.33336V9.7778V12.2222V14.6667V17.1089H2.44444V14.6667V12.2222Z" fill="#283618"/>
</g>
<defs>
<clipPath id="clip0_1467_225">
<rect width="22" height="22" fill="white"/>
</clipPath>
</defs>
</svg>
