<svg width="24" height="17" viewBox="0 0 24 17" fill="none" xmlns="http://www.w3.org/2000/svg">
<path d="M21.1215 2.45583L21.1262 0.0314307L18.573 0.0269367L16.0198 0.0224564L13.4666 0.0179624L10.9134 0.0134684L8.36023 0.00898804L5.80704 0.00449402L3.25384 0H3.24203V2.41992H0.693564L0.688831 4.84207L0.684106 7.26647L0.67938 9.69087L0.674647 12.1153L0.669922 14.5397V14.5442H3.22311V16.9686H3.21602L5.76921 16.9731L8.3224 16.9776L10.8756 16.9821L13.4288 16.9865L15.982 16.991L18.5352 16.9955L21.0884 17L21.0931 14.5756L23.6463 14.5801L23.651 12.1557L23.6557 9.73129L23.6605 7.30688L23.6652 4.88248L23.6699 2.45808L21.1167 2.45358L21.1215 2.45583ZM16.0033 9.71108H13.4501V12.1377H10.8969V4.86004H13.4501V7.28668H16.0033V9.71108Z" fill="#283618"/>
</svg>
