<svg xmlns="http://www.w3.org/2000/svg" viewBox="0 0 100 38">
<path d="M33.5,16.4h14v8c0,8.2-5.1,13.7-14,13.7s-14-5.5-14-13.7V13.7C19.5,5.5,24.6,0,33.5,0c8.4,0,13.4,4.9,13.9,12.3H40.2c-.6-3.3-3.4-5.2-6.8-5.2-3.9,0-6.9,2.4-6.9,6.7V24.5c0,4.3,3,6.7,6.9,6.7s6.9-2.4,6.9-6.7v-1H33.4l.1-7.1Z"></path>
<path d="M52.6,37.7V.5h14c8.9,0,14,5.5,14,13.7v9.7c0,8.2-5.1,13.7-14,13.7h-14ZM73.5,14.3c0-4.3-3-6.7-6.9-6.7H59.7v23h6.9c3.9,0,6.9-2.4,6.9-6.7Z"></path>
<polygon points="100 7.4 94.4 23.4 100 23.4 100 30.2 91.9 30.2 89.3 37.7 81.8 37.7 95.1 0.5 100 0.5 100 7.4"></polygon>
<polygon points="0 0.5 4.9 0.5 18.2 37.7 10.7 37.7 8.1 30.2 0 30.2 0 23.4 5.6 23.4 0 7.4 0 0.5"></polygon>
</svg>