<?xml version="1.0" encoding="utf-8"?>
<!-- Generator: Adobe Illustrator 26.0.3, SVG Export Plug-In . SVG Version: 6.00 Build 0)  -->
<svg version="1.1" id="Layer_1" xmlns="http://www.w3.org/2000/svg" xmlns:xlink="http://www.w3.org/1999/xlink" x="0px" y="0px"
	 viewBox="0 0 330 60" style="enable-background:new 0 0 330 60;" xml:space="preserve">
<style type="text/css">
	.st0{enable-background:new    ;}
	.st1{fill:#000000;}
	.st2{fill:#03BFD7;}
</style>
<g>
	<g class="st0">
		<path class="st1" d="M0,51.2h2.2c0.4,0,0.9,0,1.2,0.1s0.5,0.2,0.8,0.4c0.2,0.2,0.3,0.4,0.4,0.7c0.1,0.2,0.1,0.4,0.1,0.8
			c0,0.2,0,0.5-0.1,0.8c-0.1,0.2-0.2,0.4-0.4,0.7C4,54.8,3.7,55,3.4,55.1s-0.7,0.2-1.2,0.2H1.3v2.2H0V51.2z M2.2,54.2
			c0.2,0,0.4,0,0.5-0.1c0.1,0,0.2-0.1,0.3-0.2c0.1-0.1,0.1-0.2,0.2-0.3c0.1-0.1,0-0.2,0-0.4c0-0.1,0-0.2,0-0.4
			c0-0.1-0.1-0.2-0.2-0.3c-0.1-0.1-0.2-0.1-0.3-0.2c-0.1,0.2-0.3,0.2-0.5,0.2H1.3v1.9h0.9C2.2,54.4,2.2,54.2,2.2,54.2z"/>
		<path class="st1" d="M6.7,51.2h1.2l2.3,6.3H8.9l-0.6-1.4H6.2l-0.6,1.4H4.3L6.7,51.2z M8,55l-0.8-2.2L6.5,55H8z"/>
		<path class="st1" d="M11,51.2h2.2c0.4,0,0.9,0.1,1.2,0.2c0.3,0.1,0.6,0.2,0.8,0.4s0.3,0.4,0.3,0.7s0.1,0.4,0.1,0.7
			c0,0.4-0.1,0.8-0.2,1c-0.1,0.2-0.4,0.5-0.8,0.7l1.3,2.6h-1.4l-1.1-2.3h-1.2v2.3h-1.3L11,51.2C10.9,51.2,11,51.2,11,51.2z
			 M13.3,54.1c0.2,0,0.3,0,0.6-0.1c0.2-0.1,0.2-0.1,0.3-0.2c0.1-0.1,0.1-0.2,0.1-0.3s0-0.2,0-0.3s0-0.2,0-0.3s-0.1-0.2-0.2-0.2
			c-0.1,0-0.2-0.1-0.3-0.2c-0.1,0-0.3,0-0.5,0h-0.9v1.8h0.9C13.3,54.3,13.3,54.1,13.3,54.1z"/>
		<path class="st1" d="M18,52.3h-1.9v-1.1h5.2v1.1h-1.9v5.2H18V52.3z"/>
		<path class="st1" d="M26.8,57.7c-0.4,0-0.9-0.1-1.2-0.2c-0.3-0.1-0.7-0.3-1-0.7c-0.2-0.3-0.4-0.7-0.5-1c-0.1-0.4-0.2-0.9-0.2-1.3
			c0-0.5,0.1-1,0.2-1.3c0.1-0.4,0.3-0.8,0.5-1c0.2-0.3,0.6-0.5,1-0.7c0.3-0.1,0.8-0.2,1.2-0.2c0.4,0,0.9,0.1,1.2,0.2
			c0.3,0.1,0.7,0.3,1,0.7c0.2,0.3,0.4,0.7,0.5,1c0.1,0.4,0.2,0.9,0.2,1.3c0,0.5-0.1,1-0.2,1.3c-0.1,0.4-0.3,0.8-0.5,1
			c-0.2,0.3-0.6,0.6-1,0.7C27.8,57.6,27.4,57.7,26.8,57.7z M26.8,56.5c0.5,0,1-0.2,1.2-0.5s0.4-0.9,0.4-1.7c0-0.7-0.1-1.2-0.4-1.6
			c-0.2-0.3-0.7-0.6-1.2-0.6s-1,0.2-1.2,0.6c-0.2,0.3-0.4,0.9-0.4,1.6c0,0.7,0.1,1.2,0.4,1.7C26,56.4,26.3,56.5,26.8,56.5z"/>
		<path class="st1" d="M30.9,51.2h4.2v1.1h-2.9v1.4h2.6v1.1h-2.6v2.5h-1.3C30.9,57.4,30.9,51.2,30.9,51.2z"/>
		<path class="st1" d="M37.5,51.2h1.4l1,4.4l1-4.3h1.4l1.1,4.3l1-4.4h1.4L44,57.5h-1.3l-1.2-4.6l-1.1,4.6h-1.2L37.5,51.2z"/>
		<path class="st1" d="M46.5,51.2h2.2c0.4,0,0.9,0,1.2,0.1s0.6,0.2,0.8,0.4s0.3,0.4,0.4,0.7c0.1,0.2,0.1,0.4,0.1,0.8
			c0,0.2,0,0.5-0.1,0.8c-0.1,0.2-0.2,0.4-0.4,0.7c-0.2,0.2-0.4,0.3-0.8,0.4c-0.3,0.1-0.7,0.2-1.2,0.2h-1v2.2h-1.3L46.5,51.2
			C46.4,51.2,46.5,51.2,46.5,51.2z M48.8,54.2c0.2,0,0.4,0,0.5-0.1c0.1,0,0.2-0.1,0.3-0.2c0.1-0.1,0.1-0.2,0.2-0.3
			c0.1-0.1,0-0.2,0-0.4c0-0.1,0-0.2,0-0.4c0-0.1-0.1-0.2-0.2-0.3c-0.1-0.1-0.2-0.1-0.3-0.2c-0.2,0.2-0.3,0.2-0.5,0.2H48v1.9h0.8
			V54.2z"/>
		<path class="st1" d="M52.2,51.2h2.2c0.4,0,0.9,0,1.2,0.1s0.5,0.2,0.8,0.4s0.3,0.4,0.4,0.7c0.1,0.2,0.1,0.4,0.1,0.8
			c0,0.2,0,0.5-0.1,0.8s-0.2,0.4-0.4,0.7c-0.2,0.2-0.4,0.3-0.8,0.4s-0.7,0.2-1.2,0.2h-1v2.2h-1.3L52.2,51.2
			C52.1,51.2,52.2,51.2,52.2,51.2z M54.4,54.2c0.2,0,0.4,0,0.6-0.1c0.1,0,0.2-0.1,0.3-0.2c0.1-0.1,0.1-0.2,0.2-0.3
			c0.1-0.1,0-0.2,0-0.4c0-0.1,0-0.2,0-0.4c0-0.1-0.1-0.2-0.2-0.3c-0.1-0.1-0.2-0.1-0.3-0.2c-0.1,0-0.3-0.1-0.6-0.1h-0.9v1.9
			L54.4,54.2L54.4,54.2z"/>
	</g>
	<path class="st1" d="M59.8,54.5h2.6v0.8h-2.6V54.5z"/>
	<path class="st1" d="M69.4,51.2h0.9l2.4,6.3h-0.9l-0.7-1.8h-2.6l-0.7,1.8H67L69.4,51.2z M71,55.1l-1.1-2.9l-1.1,2.9H71z"/>
	<path class="st1" d="M79.3,56c-0.1,0.5-0.3,0.9-0.5,1.2c-0.3,0.3-0.8,0.4-1.3,0.4c-0.3,0-0.7-0.1-0.9-0.2c-0.2-0.1-0.4-0.2-0.7-0.4
		c-0.2-0.2-0.3-0.4-0.4-0.8c-0.1-0.3-0.1-0.7-0.1-1s0-0.7,0.1-1s0.2-0.6,0.4-0.8c0.2-0.2,0.4-0.3,0.7-0.4c0.2-0.1,0.6-0.2,0.9-0.2
		c0.6,0,1,0.1,1.3,0.4c0.3,0.2,0.4,0.7,0.5,1.1l-0.9,0.2c0-0.1-0.1-0.3-0.1-0.4c0-0.1-0.1-0.2-0.2-0.3s-0.2-0.1-0.3-0.2
		c-0.1,0-0.3-0.1-0.4-0.1c-0.2,0-0.4,0-0.7,0.1c-0.2,0.1-0.3,0.2-0.4,0.3s-0.2,0.3-0.2,0.6c0,0.2-0.1,0.4-0.1,0.7
		c0,0.2,0,0.4,0.1,0.7c0,0.2,0.1,0.4,0.2,0.5s0.2,0.3,0.4,0.3c0.2,0.1,0.3,0.1,0.7,0.1c0.3,0,0.7-0.1,0.8-0.3
		c0.2-0.2,0.3-0.4,0.3-0.8h0.9V56H79.3z"/>
	<path class="st1" d="M80.3,53h0.8v0.7c0.2-0.2,0.3-0.4,0.6-0.6c0.2-0.1,0.4-0.2,0.8-0.2c0.1,0,0.3,0,0.4,0l-0.1,0.7
		c-0.1,0-0.1,0-0.2,0s-0.1,0-0.2,0s-0.3,0-0.4,0.1s-0.3,0.1-0.4,0.2s-0.2,0.2-0.3,0.4c-0.1,0.1-0.1,0.3-0.1,0.5v2.8h-0.8V53H80.3z"
		/>
	<path class="st1" d="M87.3,56.3c-0.1,0.4-0.2,0.8-0.5,1s-0.8,0.3-1.3,0.3c-0.7,0-1.2-0.2-1.5-0.7c-0.3-0.4-0.6-1-0.6-1.8
		c0-0.4,0-0.8,0.1-1.1s0.2-0.5,0.4-0.8c0.2-0.2,0.4-0.3,0.7-0.4c0.2-0.1,0.6-0.1,0.9-0.1s0.7,0.1,0.9,0.2c0.2,0.1,0.4,0.2,0.7,0.4
		c0.1,0.2,0.3,0.4,0.3,0.7c0.1,0.2,0.1,0.6,0.1,0.9v0.4H84c0,0.2,0,0.4,0.1,0.7c0.1,0.2,0.1,0.3,0.2,0.5c0.1,0.1,0.2,0.2,0.4,0.3
		c0.2,0.1,0.3,0.1,0.5,0.1c0.3,0,0.7-0.1,0.9-0.2c0.2-0.1,0.3-0.3,0.3-0.5L87.3,56.3L87.3,56.3z M86.5,54.8c0-0.2,0-0.4-0.1-0.5
		c0-0.2-0.1-0.3-0.2-0.4c-0.1-0.1-0.2-0.2-0.4-0.3c-0.1-0.1-0.3-0.1-0.5-0.1c-0.4,0-0.8,0.1-1,0.3s-0.3,0.5-0.4,1.1L86.5,54.8
		L86.5,54.8z"/>
	<path class="st1" d="M91.1,56.9c-0.1,0.2-0.3,0.3-0.7,0.5c-0.2,0.1-0.5,0.2-1,0.2c-0.2,0-0.4,0-0.7-0.1c-0.2,0-0.3-0.1-0.4-0.2
		c-0.1-0.1-0.2-0.2-0.3-0.4c-0.1-0.2-0.1-0.3-0.1-0.5c0-0.3,0.1-0.6,0.2-0.8s0.3-0.3,0.6-0.4c0.2-0.1,0.4-0.2,0.8-0.2
		c0.3,0,0.5-0.1,0.9-0.1h0.8v-0.3c0-0.4-0.1-0.7-0.2-0.9s-0.4-0.2-0.8-0.2c-0.3,0-0.7,0.1-0.8,0.2c-0.1,0.1-0.3,0.3-0.3,0.5
		l-0.7-0.1c0.1-0.4,0.3-0.8,0.6-0.9c0.3-0.2,0.8-0.3,1.3-0.3c0.3,0,0.7,0,0.9,0.1s0.4,0.2,0.6,0.3c0.1,0.1,0.2,0.3,0.3,0.5
		c0.1,0.2,0.1,0.4,0.1,0.8v3h-0.8v-0.7C91.4,56.9,91.1,56.9,91.1,56.9z M91.1,55.3h-0.8c-0.3,0-0.5,0-0.8,0.1
		c-0.2,0-0.3,0.1-0.4,0.2c-0.1,0.1-0.2,0.2-0.2,0.3s-0.1,0.2-0.1,0.4s0.1,0.4,0.2,0.5s0.3,0.2,0.7,0.2c0.4,0,0.8-0.1,1.1-0.3
		c0.2-0.2,0.3-0.5,0.3-0.9C91.1,56,91.1,55.3,91.1,55.3z"/>
	<path class="st1" d="M93.3,53.5h-0.8v-0.7h0.7v-1.2H94v1.2h1.2v0.7H94v2.6c0,0.2,0,0.4,0.1,0.5s0.2,0.2,0.4,0.2c0.1,0,0.2,0,0.3,0
		c0.1,0,0.2,0,0.2-0.1l0.1,0.6c-0.1,0-0.2,0.1-0.3,0.1c-0.1,0-0.3,0-0.4,0c-0.2,0-0.4,0-0.7-0.1c-0.2-0.1-0.3-0.2-0.3-0.3
		c-0.1-0.1-0.1-0.3-0.2-0.5c0-0.2,0-0.4,0-0.7v-2.3H93.3z"/>
	<path class="st1" d="M96.1,51.2h0.8v0.9h-0.8V51.2z M96.1,53h0.8v4.5h-0.8V53z"/>
	<path class="st1" d="M97.5,53h0.9l1.3,3.7l1.4-3.7h0.9l-1.9,4.5h-0.8L97.5,53z"/>
	<path class="st1" d="M106.4,56.3c-0.1,0.4-0.2,0.8-0.6,1c-0.3,0.2-0.8,0.3-1.3,0.3c-0.7,0-1.2-0.2-1.5-0.7c-0.3-0.4-0.6-1-0.6-1.8
		c0-0.4,0-0.8,0.1-1.1s0.2-0.5,0.4-0.8c0.2-0.2,0.4-0.3,0.7-0.4c0.2-0.1,0.6-0.1,0.9-0.1s0.7,0.1,0.9,0.2c0.2,0.1,0.4,0.2,0.7,0.4
		c0.1,0.2,0.3,0.4,0.3,0.7c0.1,0.2,0.1,0.6,0.1,0.9v0.4h-3.4c0,0.2,0,0.4,0.1,0.7c0.1,0.2,0.1,0.3,0.2,0.5c0.1,0.1,0.2,0.2,0.4,0.3
		s0.3,0.1,0.5,0.1c0.3,0,0.7-0.1,0.9-0.2c0.2-0.1,0.3-0.3,0.3-0.5L106.4,56.3L106.4,56.3z M105.7,54.8c0-0.2,0-0.4-0.1-0.5
		c0-0.2-0.1-0.3-0.2-0.4c-0.1-0.1-0.2-0.2-0.4-0.3c-0.1-0.1-0.3-0.1-0.6-0.1c-0.4,0-0.8,0.1-1,0.3s-0.3,0.5-0.4,1.1L105.7,54.8
		L105.7,54.8z"/>
	<path class="st1" d="M109.7,53.5H109v-0.7h0.7v-1.2h0.8v1.2h1.2v0.7h-1.2v2.6c0,0.2,0,0.4,0.1,0.5s0.2,0.2,0.4,0.2
		c0.1,0,0.2,0,0.3,0s0.2,0,0.2-0.1l0.1,0.6c-0.1,0-0.2,0.1-0.3,0.1s-0.3,0-0.4,0c-0.2,0-0.4,0-0.7-0.1c-0.2-0.1-0.3-0.2-0.3-0.3
		c-0.1-0.1-0.1-0.3-0.2-0.5c0-0.2,0-0.4,0-0.7C109.7,55.8,109.7,53.5,109.7,53.5z"/>
	<path class="st1" d="M112.5,53h0.8v0.7c0.2-0.2,0.3-0.4,0.6-0.6c0.2-0.1,0.4-0.2,0.8-0.2c0.1,0,0.3,0,0.4,0l-0.1,0.7
		c-0.1,0-0.1,0-0.2,0c-0.1,0-0.1,0-0.2,0c-0.1,0-0.3,0-0.4,0.1c-0.1,0.1-0.3,0.1-0.4,0.2s-0.2,0.2-0.3,0.4c-0.1,0.1-0.1,0.3-0.1,0.5
		v2.8h-0.8V53H112.5z"/>
	<path class="st1" d="M118.4,56.9c-0.1,0.2-0.3,0.3-0.7,0.5c-0.2,0.1-0.6,0.2-1,0.2c-0.2,0-0.4,0-0.7-0.1c-0.2,0-0.3-0.1-0.4-0.2
		c-0.1-0.1-0.2-0.2-0.3-0.4s-0.1-0.3-0.1-0.5c0-0.3,0.1-0.6,0.2-0.8c0.1-0.2,0.3-0.3,0.6-0.4s0.4-0.2,0.8-0.2c0.3,0,0.5-0.1,0.9-0.1
		h0.8v-0.3c0-0.4-0.1-0.7-0.2-0.9c-0.1-0.2-0.4-0.2-0.8-0.2s-0.7,0.1-0.8,0.2c-0.1,0.1-0.3,0.3-0.3,0.5l-0.7-0.1
		c0.1-0.4,0.3-0.8,0.6-0.9c0.3-0.2,0.8-0.3,1.3-0.3c0.3,0,0.7,0,0.9,0.1s0.4,0.2,0.6,0.3c0.1,0.1,0.2,0.3,0.3,0.5s0.1,0.4,0.1,0.8v3
		h-0.8v-0.7C118.7,56.9,118.4,56.9,118.4,56.9z M118.4,55.3h-0.8c-0.3,0-0.6,0-0.8,0.1c-0.2,0-0.3,0.1-0.4,0.2
		c-0.1,0.1-0.2,0.2-0.2,0.3s-0.1,0.2-0.1,0.4s0.1,0.4,0.2,0.5c0.1,0.1,0.3,0.2,0.7,0.2s0.8-0.1,1.1-0.3c0.2-0.2,0.3-0.5,0.3-0.9
		V55.3L118.4,55.3z"/>
	<path class="st1" d="M120.3,53h0.8v0.7c0.2-0.3,0.4-0.6,0.8-0.7c0.2-0.1,0.6-0.2,0.9-0.2c0.6,0,0.9,0.1,1.1,0.4
		c0.2,0.3,0.3,0.7,0.3,1.2v3.1h-0.8v-2.9c0-0.4-0.1-0.8-0.2-0.9c-0.1-0.1-0.4-0.2-0.7-0.2c-0.2,0-0.3,0-0.5,0.1s-0.3,0.1-0.4,0.3
		c-0.1,0.1-0.2,0.2-0.3,0.4s-0.1,0.3-0.1,0.5v2.6h-0.8V53H120.3z"/>
	<path class="st1" d="M125.8,56.2c0,0.3,0.2,0.5,0.4,0.7c0.2,0.1,0.5,0.2,0.9,0.2s0.7-0.1,0.8-0.2c0.1-0.1,0.2-0.3,0.2-0.5
		c0-0.1,0-0.2,0-0.2c0-0.1-0.1-0.1-0.1-0.2c-0.1-0.1-0.1-0.1-0.2-0.1c-0.1,0-0.2-0.1-0.4-0.1l-0.6-0.1c-0.2,0-0.4-0.1-0.7-0.1
		c-0.2-0.1-0.3-0.1-0.4-0.2c-0.1-0.1-0.2-0.2-0.3-0.3s-0.1-0.3-0.1-0.6s0-0.4,0.1-0.5s0.2-0.3,0.3-0.4c0.1-0.1,0.3-0.2,0.6-0.2
		c0.2-0.1,0.4-0.1,0.8-0.1s0.6,0,0.8,0.1s0.4,0.1,0.5,0.2c0.1,0.1,0.2,0.2,0.3,0.4s0.1,0.3,0.2,0.4l-0.7,0.1c0-0.1-0.1-0.2-0.1-0.3
		S128,54,127.9,54c-0.1-0.1-0.2-0.1-0.3-0.1s-0.3,0-0.4,0c-0.2,0-0.4,0-0.5,0.1c-0.1,0-0.2,0.1-0.3,0.1c-0.1,0.1-0.1,0.1-0.2,0.2
		c0,0.1,0,0.1,0,0.2s0,0.2,0,0.2c0,0.1,0.1,0.1,0.1,0.2c0.1,0.1,0.1,0.1,0.2,0.1c0.1,0,0.2,0.1,0.4,0.1l0.7,0.1
		c0.6,0.1,0.9,0.2,1.1,0.4s0.3,0.5,0.3,1c0,0.2,0,0.3-0.1,0.5c-0.1,0.1-0.2,0.3-0.3,0.4c-0.1,0.1-0.3,0.2-0.6,0.3
		c-0.2,0.1-0.6,0.1-0.8,0.1c-0.3,0-0.5,0-0.8-0.1c-0.2-0.1-0.4-0.1-0.7-0.2s-0.3-0.2-0.4-0.4s-0.2-0.4-0.2-0.7h0.8L125.8,56.2
		C125.9,56.2,125.8,56.2,125.8,56.2z"/>
	<path class="st1" d="M130.2,53.5h-0.7v-0.7h0.7v-0.4c0-0.2,0-0.4,0.1-0.7c0.1-0.2,0.2-0.3,0.3-0.4c0.1-0.1,0.2-0.2,0.4-0.2
		c0.2-0.1,0.3-0.1,0.6-0.1c0.1,0,0.2,0,0.4,0c0.1,0,0.2,0,0.4,0.1l-0.1,0.6c-0.1,0-0.2,0-0.2-0.1c-0.1,0-0.2,0-0.2,0
		c-0.2,0-0.3,0-0.6,0.1c-0.1,0.1-0.2,0.3-0.2,0.5v0.4h1.1v0.7h-1.1v4h-0.8L130.2,53.5L130.2,53.5L130.2,53.5z"/>
	<path class="st1" d="M134.7,57.7c-0.3,0-0.7-0.1-0.9-0.2c-0.2-0.1-0.5-0.2-0.7-0.4s-0.3-0.4-0.4-0.8c-0.1-0.3-0.1-0.7-0.1-1
		s0-0.7,0.1-1s0.2-0.5,0.4-0.8c0.2-0.2,0.4-0.3,0.7-0.4c0.2-0.1,0.6-0.2,0.9-0.2s0.7,0.1,0.9,0.2c0.2,0.1,0.6,0.2,0.7,0.4
		c0.1,0.2,0.3,0.4,0.4,0.8s0.1,0.7,0.1,1s0,0.7-0.1,1s-0.2,0.5-0.4,0.8c-0.2,0.2-0.4,0.3-0.7,0.4C135.3,57.6,135,57.7,134.7,57.7z
		 M134.7,57c0.2,0,0.4,0,0.7-0.1c0.2-0.1,0.3-0.2,0.4-0.3c0.1-0.1,0.2-0.3,0.2-0.5s0.1-0.4,0.1-0.8c0-0.2,0-0.5-0.1-0.7
		c0-0.2-0.1-0.4-0.2-0.6c-0.1-0.1-0.2-0.3-0.4-0.3s-0.4-0.1-0.7-0.1c-0.2,0-0.4,0-0.7,0.1c-0.2,0.1-0.3,0.2-0.4,0.3
		c-0.1,0.1-0.2,0.3-0.2,0.6s-0.1,0.4-0.1,0.8c0,0.2,0,0.5,0.1,0.8s0.1,0.4,0.2,0.5s0.2,0.3,0.4,0.3C134.2,56.9,134.5,57,134.7,57z"
		/>
	<path class="st1" d="M138,53h0.8v0.7c0.2-0.2,0.3-0.4,0.5-0.6c0.2-0.1,0.4-0.2,0.8-0.2c0.1,0,0.3,0,0.4,0l-0.1,0.7
		c-0.1,0-0.1,0-0.2,0s-0.1,0-0.2,0c-0.1,0-0.3,0-0.4,0.1c-0.1,0.1-0.3,0.1-0.4,0.2c-0.1,0.1-0.2,0.2-0.3,0.4
		c-0.1,0.1-0.1,0.3-0.1,0.5v2.8H138V53L138,53z"/>
	<path class="st1" d="M141.2,53h0.8v0.7c0.2-0.3,0.4-0.4,0.7-0.7c0.2-0.1,0.6-0.2,0.8-0.2c0.3,0,0.7,0.1,0.8,0.2
		c0.2,0.1,0.3,0.3,0.4,0.7c0.2-0.3,0.4-0.4,0.7-0.7c0.2-0.1,0.6-0.2,0.9-0.2c0.4,0,0.8,0.1,1,0.3s0.3,0.7,0.3,1.2v3.2h-0.8v-3
		c0-0.2,0-0.3,0-0.5c0-0.1-0.1-0.2-0.1-0.3c-0.1-0.1-0.1-0.1-0.2-0.2c-0.1,0-0.2,0-0.3,0s-0.3,0-0.4,0.1c-0.1,0-0.3,0.1-0.4,0.2
		c-0.1,0.1-0.2,0.2-0.3,0.3s-0.1,0.3-0.1,0.4v2.9h-0.8v-2.9c0-0.4-0.1-0.7-0.2-0.9c-0.1-0.1-0.3-0.2-0.6-0.2s-0.6,0.1-0.9,0.3
		c-0.1,0.1-0.2,0.2-0.3,0.3s-0.1,0.3-0.1,0.5v2.8H141V53H141.2z"/>
	<path class="st1" d="M151.6,56.9c-0.1,0.2-0.3,0.3-0.7,0.5c-0.2,0.1-0.6,0.2-1,0.2c-0.2,0-0.4,0-0.7-0.1c-0.2,0-0.3-0.1-0.4-0.2
		c-0.1-0.1-0.2-0.2-0.3-0.4s-0.1-0.3-0.1-0.5c0-0.3,0.1-0.6,0.2-0.8c0.1-0.2,0.3-0.3,0.6-0.4c0.2-0.1,0.4-0.2,0.8-0.2
		s0.6-0.1,0.9-0.1h0.8v-0.3c0-0.4-0.1-0.7-0.2-0.9c-0.1-0.2-0.4-0.2-0.8-0.2c-0.3,0-0.7,0.1-0.8,0.2c-0.1,0.1-0.3,0.3-0.3,0.5
		l-0.7-0.1c0.1-0.4,0.3-0.8,0.5-0.9c0.3-0.2,0.8-0.3,1.3-0.3c0.3,0,0.7,0,0.9,0.1s0.4,0.2,0.5,0.3s0.2,0.3,0.3,0.5s0.1,0.4,0.1,0.8
		v3h-0.8v-0.7C151.7,56.9,151.6,56.9,151.6,56.9z M151.5,55.3h-0.8c-0.3,0-0.6,0-0.8,0.1c-0.2,0-0.3,0.1-0.4,0.2
		c-0.1,0.1-0.2,0.2-0.2,0.3s-0.1,0.2-0.1,0.4s0.1,0.4,0.2,0.5c0.1,0.1,0.3,0.2,0.7,0.2s0.8-0.1,1.1-0.3c0.2-0.2,0.3-0.5,0.3-0.9
		V55.3L151.5,55.3z"/>
	<path class="st1" d="M153.7,53.5H153v-0.7h0.7v-1.2h0.8v1.2h1.2v0.7h-1.2v2.6c0,0.2,0,0.4,0.1,0.5s0.2,0.2,0.4,0.2
		c0.1,0,0.2,0,0.3,0s0.2,0,0.2-0.1l0.1,0.6c-0.1,0-0.2,0.1-0.3,0.1s-0.3,0-0.4,0c-0.2,0-0.4,0-0.7-0.1c-0.1-0.1-0.3-0.2-0.3-0.3
		c-0.1-0.1-0.1-0.3-0.2-0.5c0-0.2,0-0.4,0-0.7L153.7,53.5L153.7,53.5z"/>
	<path class="st1" d="M156.6,51.2h0.8v0.9h-0.8V51.2z M156.6,53h0.8v4.5h-0.8V53z"/>
	<path class="st1" d="M160.5,57.7c-0.3,0-0.7-0.1-0.9-0.2c-0.2-0.1-0.6-0.2-0.7-0.4c-0.2-0.2-0.3-0.4-0.4-0.8s-0.1-0.7-0.1-1
		s0-0.7,0.1-1s0.2-0.5,0.4-0.8s0.4-0.3,0.7-0.4c0.2-0.1,0.6-0.2,0.9-0.2s0.7,0.1,0.9,0.2s0.6,0.2,0.7,0.4c0.2,0.2,0.3,0.4,0.4,0.8
		c0.1,0.3,0.1,0.7,0.1,1s0,0.7-0.1,1s-0.2,0.5-0.4,0.8s-0.4,0.3-0.7,0.4C161.2,57.6,160.9,57.7,160.5,57.7z M160.5,57
		c0.2,0,0.4,0,0.7-0.1c0.2-0.1,0.3-0.2,0.4-0.3c0.1-0.1,0.2-0.3,0.2-0.5s0.1-0.4,0.1-0.8c0-0.2,0-0.5-0.1-0.7c0-0.2-0.1-0.4-0.2-0.6
		c-0.1-0.1-0.2-0.3-0.4-0.3s-0.4-0.1-0.7-0.1c-0.2,0-0.4,0-0.7,0.1s-0.3,0.2-0.4,0.3c-0.1,0.1-0.2,0.3-0.2,0.6s-0.1,0.4-0.1,0.8
		c0,0.2,0,0.5,0.1,0.8c0.1,0.2,0.1,0.4,0.2,0.5c0.1,0.1,0.2,0.3,0.4,0.3C160.1,57.1,160.3,57,160.5,57z"/>
	<path class="st1" d="M163.8,53h0.8v0.7c0.2-0.3,0.4-0.6,0.8-0.7s0.6-0.2,0.9-0.2c0.5,0,0.9,0.1,1.1,0.4c0.2,0.3,0.3,0.7,0.3,1.2
		v3.1h-0.8v-2.9c0-0.4-0.1-0.8-0.2-0.9s-0.4-0.2-0.7-0.2c-0.2,0-0.3,0-0.6,0.1c-0.2,0.1-0.3,0.1-0.4,0.3c-0.1,0.1-0.2,0.2-0.3,0.4
		s-0.1,0.3-0.1,0.5v2.6h-0.8V53z"/>
	<path class="st1" d="M174.7,56c-0.1,0.5-0.3,0.9-0.5,1.2c-0.3,0.3-0.8,0.4-1.3,0.4c-0.3,0-0.7-0.1-0.9-0.2
		c-0.2-0.1-0.4-0.2-0.7-0.4c-0.2-0.2-0.3-0.4-0.4-0.8c-0.1-0.3-0.1-0.7-0.1-1s0-0.7,0.1-1s0.2-0.6,0.4-0.8s0.4-0.3,0.7-0.4
		s0.6-0.2,0.9-0.2c0.6,0,1,0.1,1.3,0.4c0.3,0.2,0.4,0.7,0.5,1.1l-0.8,0.1c0-0.1-0.1-0.3-0.1-0.4s-0.1-0.2-0.2-0.3
		c-0.1-0.1-0.2-0.1-0.3-0.2c-0.1,0-0.3-0.1-0.4-0.1c-0.2,0-0.4,0-0.7,0.1c-0.2,0.1-0.3,0.2-0.4,0.3c-0.1,0.1-0.2,0.3-0.2,0.5
		s-0.1,0.4-0.1,0.7c0,0.2,0,0.4,0.1,0.7c0,0.2,0.1,0.4,0.2,0.5c0.1,0.1,0.2,0.3,0.4,0.3c0.2,0.1,0.3,0.1,0.7,0.1s0.7-0.1,0.8-0.3
		s0.3-0.4,0.3-0.8h0.8V56H174.7z"/>
	<path class="st1" d="M177.7,57.7c-0.3,0-0.7-0.1-0.9-0.2c-0.2-0.1-0.6-0.2-0.7-0.4c-0.2-0.2-0.3-0.4-0.4-0.8
		c-0.1-0.3-0.1-0.7-0.1-1s0-0.7,0.1-1s0.2-0.5,0.4-0.8s0.4-0.3,0.7-0.4c0.2-0.1,0.6-0.2,0.9-0.2s0.7,0.1,0.9,0.2s0.6,0.2,0.7,0.4
		c0.2,0.2,0.3,0.4,0.4,0.8c0.1,0.3,0.1,0.7,0.1,1s0,0.7-0.1,1s-0.2,0.5-0.4,0.8s-0.4,0.3-0.7,0.4C178.3,57.6,178,57.7,177.7,57.7z
		 M177.7,57c0.2,0,0.4,0,0.7-0.1c0.2-0.1,0.3-0.2,0.4-0.3c0.1-0.1,0.2-0.3,0.2-0.5s0.1-0.4,0.1-0.8c0-0.2,0-0.5-0.1-0.7
		c0-0.2-0.1-0.4-0.2-0.6c-0.1-0.1-0.2-0.3-0.4-0.3s-0.4-0.1-0.7-0.1c-0.2,0-0.4,0-0.7,0.1s-0.3,0.2-0.4,0.3
		c-0.1,0.1-0.2,0.3-0.2,0.6s-0.1,0.4-0.1,0.8c0,0.2,0,0.5,0.1,0.8c0.1,0.2,0.1,0.4,0.2,0.5c0.1,0.1,0.2,0.3,0.4,0.3
		S177.5,57,177.7,57z"/>
	<path class="st1" d="M180.9,53h0.8v0.7c0.2-0.3,0.4-0.4,0.7-0.7c0.2-0.1,0.6-0.2,0.8-0.2c0.3,0,0.7,0.1,0.8,0.2
		c0.2,0.1,0.3,0.3,0.4,0.7c0.2-0.3,0.4-0.4,0.7-0.7c0.2-0.1,0.6-0.2,0.9-0.2c0.4,0,0.8,0.1,1,0.3s0.3,0.7,0.3,1.2v3.2h-0.8v-3
		c0-0.2,0-0.3,0-0.5c0-0.1-0.1-0.2-0.1-0.3c-0.1-0.1-0.1-0.1-0.2-0.2c-0.1,0-0.2,0-0.3,0s-0.3,0-0.4,0.1c-0.1,0-0.3,0.1-0.4,0.2
		c-0.1,0.1-0.2,0.2-0.3,0.3s-0.1,0.3-0.1,0.4v2.9h-0.8v-2.9c0-0.4-0.1-0.7-0.2-0.9c-0.1-0.1-0.3-0.2-0.6-0.2s-0.6,0.1-0.9,0.3
		c-0.1,0.1-0.2,0.2-0.3,0.3s-0.1,0.3-0.1,0.5v2.8H181L180.9,53L180.9,53z"/>
	<path class="st1" d="M188.5,53h0.8v0.7c0.2-0.2,0.4-0.4,0.7-0.6c0.2-0.1,0.6-0.2,0.9-0.2s0.6,0.1,0.9,0.2c0.2,0.1,0.4,0.3,0.7,0.4
		c0.1,0.2,0.3,0.4,0.3,0.8c0.1,0.3,0.1,0.7,0.1,1s0,0.7-0.1,1s-0.2,0.5-0.4,0.8c-0.2,0.2-0.4,0.3-0.7,0.4s-0.6,0.2-0.9,0.2
		c-0.2,0-0.6,0-0.8-0.1s-0.4-0.3-0.7-0.6v2.3h-0.8V53L188.5,53z M189.2,55.4c0,0.3,0,0.5,0.1,0.8c0.1,0.2,0.1,0.3,0.3,0.5
		c0.1,0.1,0.2,0.2,0.4,0.3c0.1,0.1,0.3,0.1,0.6,0.1c0.2,0,0.3,0,0.5-0.1c0.1-0.1,0.3-0.2,0.4-0.3c0.1-0.1,0.2-0.3,0.3-0.5
		s0.1-0.5,0.1-0.9c0-0.3,0-0.7-0.1-0.9s-0.2-0.4-0.3-0.6c-0.1-0.1-0.2-0.2-0.4-0.3c-0.1-0.1-0.3-0.1-0.4-0.1c-0.2,0-0.3,0-0.6,0.1
		c-0.2,0.1-0.3,0.2-0.4,0.3c-0.1,0.1-0.2,0.3-0.3,0.6c-0.1,0.2-0.1,0.4-0.1,0.7v0.3C189.3,55.4,189.2,55.4,189.2,55.4z"/>
	<path class="st1" d="M196.6,56.9c-0.1,0.2-0.3,0.3-0.7,0.5c-0.2,0.1-0.6,0.2-1,0.2c-0.2,0-0.4,0-0.7-0.1c-0.2,0-0.3-0.1-0.4-0.2
		c-0.1-0.1-0.2-0.2-0.3-0.4s-0.1-0.3-0.1-0.5c0-0.3,0.1-0.6,0.2-0.8c0.1-0.2,0.3-0.3,0.6-0.4s0.4-0.2,0.8-0.2c0.2,0,0.5-0.1,0.9-0.1
		h0.8v-0.3c0-0.4-0.1-0.7-0.2-0.9c-0.1-0.2-0.4-0.2-0.8-0.2s-0.7,0.1-0.8,0.2c-0.2,0.1-0.3,0.3-0.3,0.5l-0.7-0.1
		c0.1-0.4,0.3-0.8,0.6-0.9c0.3-0.2,0.8-0.3,1.3-0.3c0.3,0,0.7,0,0.9,0.1s0.4,0.2,0.6,0.3c0.1,0.1,0.2,0.3,0.3,0.5s0.1,0.4,0.1,0.8v3
		h-0.8v-0.7C196.9,56.9,196.6,56.9,196.6,56.9z M196.5,55.3h-0.8c-0.3,0-0.6,0-0.8,0.1c-0.2,0-0.3,0.1-0.4,0.2
		c-0.1,0.1-0.2,0.2-0.2,0.3s-0.1,0.2-0.1,0.4s0.1,0.4,0.2,0.5c0.1,0.1,0.3,0.2,0.7,0.2s0.8-0.1,1.1-0.3c0.2-0.2,0.3-0.5,0.3-0.9
		V55.3L196.5,55.3z"/>
	<path class="st1" d="M198.5,53h0.8v0.7c0.2-0.3,0.4-0.6,0.8-0.7c0.2-0.1,0.6-0.2,0.9-0.2c0.6,0,0.9,0.1,1.1,0.4
		c0.2,0.3,0.3,0.7,0.3,1.2v3.1h-0.8v-2.9c0-0.4-0.1-0.8-0.2-0.9c-0.1-0.1-0.4-0.2-0.7-0.2c-0.2,0-0.3,0-0.5,0.1s-0.3,0.1-0.4,0.3
		c-0.1,0.1-0.2,0.2-0.3,0.4s-0.1,0.3-0.1,0.5v2.6h-0.8V53H198.5z"/>
	<path class="st1" d="M203.4,58.5c0.1,0.1,0.3,0.1,0.4,0.1c0.2,0,0.3,0,0.4-0.1c0.1-0.1,0.2-0.3,0.3-0.5l0.2-0.4l-2-4.4h0.9l1.4,3.5
		l1.3-3.5h0.9l-2,5c-0.1,0.2-0.1,0.4-0.2,0.5c-0.1,0.1-0.2,0.3-0.2,0.4c-0.1,0.1-0.2,0.2-0.3,0.2c-0.1,0.1-0.3,0.1-0.6,0.1
		c-0.1,0-0.2,0-0.3,0s-0.2,0-0.3-0.1L203.4,58.5z"/>
</g>
<g id="Layer_1_00000096751025074870605010000004216219016140779652_">
	<g id="Group_80" transform="translate(163 23.999)">
		<g id="Group_2649" transform="translate(-163 -24)">
			<path id="Path_63" class="st1" d="M18.1,26.4c0,0.2-0.1,0.4-0.2,0.6c-1.4,2-3.6,3.2-6.1,3.2c-4,0-7.3-3.3-7.3-7.3V12.3H1.1
				c-0.6,0-1.1-0.5-1.1-1.1s0.5-1.1,1.1-1.1h3.5v-9c0-0.6,0.4-1,1-1.1c0,0,0,0,0.1,0c0.6,0,1,0.4,1,1c0,0,0,0,0,0.1v9h8.6
				c0.6,0,1.1,0.5,1.1,1.1l0,0c0,0.6-0.4,1.1-1,1.1l0,0H6.7V23c0,2.9,2.3,5.2,5.2,5.2c1.7-0.1,3.3-0.9,4.3-2.4
				c0.2-0.3,0.5-0.4,0.9-0.4C17.6,25.3,18.1,25.8,18.1,26.4"/>
			<path id="Path_64" class="st1" d="M45.6,28.7c0,0.6-0.5,1.1-1.1,1.1h-9.1c-0.6,0-1-0.5-1-1l0,0c0-0.6,0.4-1.1,1-1.1l0,0h3.4V17
				c0-3.3-2.1-5.3-5.7-5.3c-3.9,0-6.6,2.9-6.6,5.4v10.5h3.4c0.6,0,1.1,0.5,1.1,1.1l0,0c0,0.6-0.5,1-1,1.1l0,0h-9
				c-0.6,0-1.1-0.5-1.1-1.1s0.5-1.1,1.1-1.1h3.4V2.7H21c-0.6,0-1.1-0.4-1.1-1l0,0c0-0.6,0.5-1.1,1.1-1.1l0,0h4.5
				c0.6,0,1.1,0.5,1.1,1.1v11.2c1.5-2.1,4-3.2,6.6-3.1c4.9,0,7.9,2.8,7.9,7.3v10.6h3.4C45.2,27.6,45.7,28.1,45.6,28.7"/>
			<path id="Path_65" class="st1" d="M63.6,25.5c-1.6,2.9-4.6,4.7-7.9,4.7c-5.2,0-9.4-4.6-9.4-10.3s4.2-10.2,9.4-10.2
				c4.7,0,8.5,4,8.8,9.6l0,0c0,0.6-0.5,1.1-1.1,1.1h-15c0.2,4.3,3.4,7.8,7.3,7.8c2.5-0.1,4.8-1.5,6.1-3.7c0.3-0.5,0.9-0.7,1.4-0.5
				c0,0,0,0,0.1,0C63.7,24.3,63.8,25,63.6,25.5 M48.6,18.2h13.6c-0.6-3.8-3.2-6.5-6.5-6.5C52.2,11.7,49.3,14.5,48.6,18.2"/>
			<path id="Path_66" class="st2" d="M94.3,19.9c0,5.8-4,10.3-9.1,10.3c-2.4,0.1-4.7-1-6.1-3v1c0,0.8-0.7,1.5-1.5,1.5h-3.2
				c-0.8,0-1.5-0.7-1.5-1.5s0.7-1.5,1.5-1.5h1.7V3.6h-2.8c-0.8,0-1.5-0.7-1.5-1.6c0-0.8,0.7-1.5,1.5-1.5h4.3c0.8,0,1.5,0.6,1.5,1.5
				v10.6c1.5-1.9,3.7-3,6.1-2.9C90.2,9.6,94.3,14.2,94.3,19.9 M91.3,19.9c0-4-2.7-7.3-6.1-7.3s-6.1,3.3-6.1,7.3s2.8,7.4,6.1,7.4
				S91.3,23.9,91.3,19.9"/>
			<path id="Path_67" class="st2" d="M115.1,14.2c0.2,1.6-0.9,3-2.5,3.1c-0.1,0-0.2,0-0.3,0c-1.4,0.1-2.7-1-2.8-2.4
				c0-0.1,0-0.1,0-0.2c0-0.8,0.4-1.5,0.9-2.1c-0.5-0.1-1.1-0.2-1.6-0.2c-2.6,0-5.3,2.9-5.7,6.9v7.4h3.2c0.8,0.1,1.5,0.7,1.5,1.5
				s-0.7,1.5-1.5,1.5h-9.1c-0.8,0-1.5-0.7-1.5-1.5s0.6-1.5,1.5-1.5h2.8V13.1h-2.8c-0.8,0-1.5-0.7-1.5-1.6c0-0.8,0.7-1.5,1.5-1.5h4.3
				c0.8,0,1.5,0.6,1.5,1.5v0.8c1.5-1.8,3.7-2.8,6-2.8C111.9,9.6,115.1,10.9,115.1,14.2"/>
			<path id="Path_68" class="st2" d="M137.6,28.3c0,0.8-0.7,1.5-1.5,1.5h-4.3c-0.8,0-1.5-0.6-1.5-1.5l0,0v-0.2
				c-1.6,1.4-3.7,2.2-5.9,2.1c-0.7,0-1.4-0.1-2-0.2c-3.1-0.7-5.2-3-5.2-5.8c0-6.4,7-6.4,10.1-6.4h3.1v-0.4c0-3.3-1.3-4.8-4.3-4.8
				c-2,0-4,0.5-5.7,1.7c-0.7,0.5-1.7,0.3-2.2-0.4c-0.4-0.7-0.2-1.5,0.4-2c2.2-1.5,4.8-2.2,7.5-2.2c4.9,0,7.3,2.5,7.3,7.8v9.3h2.9
				C136.9,26.8,137.6,27.4,137.6,28.3 M124.2,27.2c2.3,0,5.3-1.3,6-3.5v-3h-3.1c-4.3,0-7,0.7-7,3.6c0,2.1,2.2,2.7,2.9,2.8
				C123.3,27.1,123.8,27.2,124.2,27.2"/>
			<path id="Path_69" class="st2" d="M164.3,28.3c0,0.8-0.7,1.5-1.5,1.5h-8.2c-0.8,0-1.5-0.7-1.5-1.5s0.7-1.5,1.5-1.5h2.6v-9.3
				c0-3.5-2.3-4.9-4.2-4.9c-3,0-6.1,1.8-6.1,6.8v7.3h2.6c0.8,0,1.5,0.7,1.5,1.5s-0.7,1.5-1.5,1.5H141c-0.8,0-1.5-0.7-1.5-1.5l0,0
				c0-0.8,0.6-1.5,1.5-1.5l0,0h2.8V13.1H141c-0.8-0.1-1.5-0.8-1.5-1.6s0.7-1.4,1.5-1.5h4.3c0.8,0,1.5,0.6,1.5,1.5V12
				c1.6-1.6,3.8-2.5,6.1-2.4c4.3,0,7.3,3.2,7.3,7.8v9.3h2.6C163.7,26.8,164.3,27.5,164.3,28.3"/>
			<path id="Path_70" class="st2" d="M186.7,28.3c0,0.8-0.7,1.5-1.5,1.5H182c-0.8,0-1.5-0.7-1.5-1.5v-1c-1.5,1.9-3.7,3-6.1,3
				c-5.1,0-9.1-4.6-9.1-10.3s4-10.2,9.1-10.2c2.4,0,4.6,1,6.1,2.9v-9h-3.3c-0.9,0-1.5-0.7-1.5-1.6c0-0.8,0.7-1.5,1.5-1.5h4.8
				c0.8,0,1.5,0.6,1.5,1.5v24.7h1.7C186.1,26.8,186.7,27.5,186.7,28.3 M180.5,19.8c0-4-2.8-7.3-6.1-7.3s-6.1,3.4-6.1,7.3
				c0,4,2.8,7.4,6.1,7.4C177.7,27.3,180.5,23.9,180.5,19.8"/>
			<path id="Path_71" class="st1" d="M214.3,28.7c0,0.6-0.5,1.1-1.1,1.1h-4.6c-0.6,0-1-0.5-1.1-1l0,0v-1.5c-1.7,2-4.1,3.1-6.7,3
				c-0.7,0-1.4,0-2-0.2c-3.2-0.7-5.1-2.8-5.1-5.6c0-6.2,7.1-6.2,10.1-6.2h3.8v-0.9c0-3.8-1.5-5.6-5.1-5.6c-2.2,0-4.4,0.6-6.3,1.9
				c-0.5,0.3-1.2,0.2-1.5-0.2c-0.3-0.5-0.2-1.1,0.3-1.5c2.2-1.5,4.9-2.3,7.5-2.2c4.7,0,7.2,2.5,7.2,7.7v10.2h3.5
				C213.8,27.6,214.3,28.1,214.3,28.7 M207.6,24v-3.8h-3.8c-4.8,0-7.9,0.8-7.9,4.2c0,2.6,2.6,3.3,3.4,3.5
				C202.2,28.6,206.7,27.2,207.6,24"/>
			<path id="Path_72" class="st1" d="M239.9,12.3L239.9,12.3c0,1.3-1.1,2.3-2.3,2.3c-1.3,0-2.4-1-2.4-2.3c0-1,0.5-1.8,1.4-2.2
				c-0.4-0.2-0.8-0.2-1.2-0.2c-1.5,0.1-2.8,1.1-3.2,2.5c1.2,1.3,1.8,3,1.8,4.7c0,4.1-3.6,7.4-8,7.4c-1.8,0-3.6-0.6-5.1-1.7
				c-0.8,0.4-2,1.4-2,2.7c0,2.5,3,2.5,3,2.5h9.4c4.3,0,6.9,1.9,6.9,5.2c0,2.1-1.1,7-11.5,7c-10.2,0-11.4-4.8-11.4-6.8
				c0.1-2,1.3-3.7,3.1-4.5c-1.8-1.5-2-4.3-0.5-6.1c0.5-0.6,1.1-1,1.8-1.2c-1-1.3-1.6-2.8-1.6-4.5c0.1-4.3,3.7-7.6,8-7.5
				c1.6,0,3.1,0.4,4.5,1.3c0.9-1.8,2.7-2.9,4.7-2.9c1.8-0.1,3.4,0.8,4.3,2.3C239.8,10.9,240,11.6,239.9,12.3 M217.3,33.4
				c0,4.2,6.5,4.7,9.2,4.7c3.5,0,9.4-0.7,9.4-4.9c0-2.5-2.6-3.1-4.8-3.1h-8.3c-1,0-2,0-3-0.2C218.4,30.5,217.4,31.8,217.3,33.4
				 M231.8,17.1c-0.1-3.1-2.7-5.5-5.8-5.5c-3.1-0.1-5.7,2.4-5.8,5.5c0,1.5,0.7,2.9,1.8,3.8c1.1,1,2.5,1.5,4,1.5
				C229,22.6,231.6,20.2,231.8,17.1"/>
			<path id="Path_73" class="st1" d="M258.4,25.5c-1.6,2.9-4.6,4.7-7.9,4.7c-5.2,0-9.4-4.6-9.4-10.3s4.2-10.2,9.4-10.2
				c4.7,0,8.5,4,8.8,9.6l0,0c0,0.6-0.5,1.1-1.1,1.1h-15c0.2,4.3,3.4,7.8,7.3,7.8c2.5-0.1,4.8-1.5,6.1-3.7c0.3-0.5,0.9-0.7,1.4-0.4
				c0,0,0,0,0.1,0C258.4,24.3,258.6,25,258.4,25.5 M243.3,18.2h13.6c-0.6-3.8-3.2-6.5-6.5-6.5C247,11.7,244,14.5,243.3,18.2"/>
			<path id="Path_74" class="st1" d="M285.7,28.7c0,0.6-0.5,1-1.1,1.1H276c-0.6,0-1.1-0.5-1.1-1.1s0.5-1.1,1.1-1.1h3.2V17.3
				c0-4.1-2.7-5.6-5-5.6c-3.4,0-6.9,2.1-6.9,7.7v8.2h3.2c0.6,0,1.1,0.5,1.1,1.1l0,0c0,0.6-0.5,1-1,1.1l0,0h-8.8c-0.6,0-1-0.5-1.1-1
				l0,0c0-0.6,0.4-1.1,1-1.1l0,0h3.4V12.3h-3.5c-0.6,0-1.1-0.5-1.1-1.1s0.5-1,1.1-1.1h4.5c0.6,0,1.1,0.5,1.1,1.1v2.1
				c1.5-2.4,4.1-3.7,6.9-3.6c4.3,0,7.2,3.1,7.2,7.7v10.2h3.2C285.2,27.6,285.7,28.1,285.7,28.7"/>
			<path id="Path_75" class="st1" d="M303.6,25.5c-1.7,2.9-4.7,4.7-8,4.7c-5.1,0-9.4-4.7-9.4-10.4s4.1-10.2,9.4-10.2
				c3.6,0,7.5,2,7.3,5.5c0,1.3-1.1,2.4-2.4,2.4s-2.4-1.1-2.4-2.4c0-1.1,0.8-2.1,1.9-2.3c-1.3-0.9-2.9-1.3-4.5-1.2
				c-4.1,0-7.3,3.6-7.3,8.2c0,4.5,3.2,8.3,7.3,8.3c2.6-0.1,4.9-1.5,6.1-3.7c0.3-0.5,1-0.7,1.5-0.4l0,0
				C303.8,24.4,303.9,25,303.6,25.5"/>
			<path id="Path_76" class="st1" d="M329,11.1c0,0.6-0.5,1.1-1.1,1.1h-2.1c-1.4,3.2-8.3,19.7-11.1,25.4c-0.9,1.6-2.6,2.6-4.5,2.6
				c-2.8,0-5.2-2.3-5.2-5.1c0-0.6,0.1-1.2,0.4-1.7c0.4-1.2,1.8-1.8,3-1.4c0.9,0.4,1.6,1.3,1.5,2.3c0,1.3-1,2.3-2.3,2.3h-0.1
				c0.7,0.9,1.7,1.5,2.8,1.5c1.1,0,2-0.6,2.5-1.5c0.5-0.8,3.2-7,3.2-7l-8.1-17.5h-2.2c-0.6,0-1.1-0.5-1.1-1.1s0.5-1,1.1-1.1h8
				c0.6,0,1,0.5,1.1,1l0,0c0,0.6-0.4,1.1-1,1.1l0,0h-3.4l6.9,14.8c2.5-5.8,5.2-12.1,6.4-14.8h-3.5c-0.6,0-1.1-0.5-1.1-1.1
				s0.5-1,1.1-1.1h8C328.5,10.1,329,10.5,329,11.1"/>
		</g>
	</g>
</g>
</svg>
