<?xml version="1.0" encoding="utf-8"?>
<!-- Generator: Adobe Illustrator 23.1.1, SVG Export Plug-In . SVG Version: 6.00 Build 0)  -->
<svg version="1.1" id="Layer_1" xmlns="http://www.w3.org/2000/svg" xmlns:xlink="http://www.w3.org/1999/xlink" x="0px" y="0px"
	 viewBox="0 0 1904 288" style="enable-background:new 0 0 1904 288;" xml:space="preserve">
<g>
	<path d="M60.56,175.79h38.79v13.16c0,15.07-2.76,26.65-8.26,34.74c-5.51,8.1-13.21,12.14-23.1,12.14
		c-12.37,0-21.37-4.44-26.98-13.32c-5.62-8.88-8.43-22.99-8.43-42.33v-70.83c0-19.11,2.75-33.17,8.26-42.16
		c5.51-8.99,14.11-13.49,25.8-13.49c9.22,0,16.41,3.37,21.59,10.12c5.17,6.75,8.43,16.76,9.78,30.02h31.71
		c-0.67-17.99-3.66-33.56-8.94-46.72c-5.29-13.16-12.54-23.22-21.76-30.19C89.79,9.95,79,6.46,66.63,6.46
		c-21.37,0-37.78,11.86-49.25,35.59C5.92,65.78,0.18,100.01,0.18,144.76c0,44.75,5.73,78.99,17.2,102.71
		c11.47,23.73,27.88,35.59,49.25,35.59c13.94,0,25.35-5.9,34.24-17.71c2.25-2.99,4.31-6.32,6.19-10l2.41,24.33h21.25V133.96H60.56
		V175.79z"/>
	<polygon points="146.91,9.83 144.21,9.83 144.21,279.68 146.91,279.68 146.91,279.68 247.43,279.68 247.43,234.48 175.24,234.48 
		175.24,165 245.07,165 245.07,119.8 175.24,119.8 175.24,55.03 247.43,55.03 247.43,9.83 175.24,9.83 	"/>
	<path d="M335.8,125.87l-18.89-6.07c-6.97-2.24-12.37-4.61-16.19-7.08c-3.83-2.47-6.69-5.62-8.6-9.44
		c-1.91-3.82-2.87-8.77-2.87-14.84v-9.44c0-9.67,2.14-16.75,6.41-21.25c4.27-4.49,10.68-6.75,19.23-6.75
		c10.34,0,17.54,3.43,21.59,10.29c4.05,6.86,6.41,16.59,7.08,29.18h29.01c0-26.98-5.01-47.73-15.01-62.23
		c-10.01-14.5-24.34-21.76-43.01-21.76c-11.02,0-20.69,3.26-29.01,9.78c-8.32,6.53-14.79,15.74-19.4,27.66
		c-4.61,11.92-6.91,25.64-6.91,41.15c0,21.14,3.26,37.73,9.78,49.75c6.52,12.03,16.75,20.52,30.7,25.47l18.55,6.41
		c8.54,2.93,15.23,6.8,20.07,11.64c4.83,4.84,7.25,10.85,7.25,18.05v10.79c0,10.12-2.82,17.88-8.43,23.27
		c-5.62,5.4-13.15,8.09-22.6,8.09c-10.35,0-18.05-4.05-23.11-12.14c-5.06-8.09-7.82-19.23-8.26-33.39h-30.02
		c0,29.46,5.28,51.83,15.85,67.12c10.57,15.29,25.97,22.94,46.21,22.94c11.69,0,22.21-3.54,31.54-10.62
		c9.33-7.08,16.64-16.92,21.92-29.52c5.28-12.59,7.93-26.87,7.93-42.84c0-21.81-3.15-38.45-9.45-49.92
		C360.87,138.69,350.42,130.59,335.8,125.87z"/>
	<polygon points="425.53,9.83 376.95,9.83 376.95,55.03 425.53,55.03 425.53,279.68 456.56,279.68 456.56,55.03 505.13,55.03 
		505.13,9.83 456.56,9.83 	"/>
	<path d="M612.05,199.4c0,12.37-2.36,21.54-7.08,27.49c-4.72,5.96-11.36,8.94-19.9,8.94h-8.77c-8.55,0-15.24-2.98-20.07-8.94
		c-4.84-5.96-7.25-15.12-7.25-27.49V9.84h-31.03v179.79c0,30.58,5.17,53.8,15.52,69.65c10.34,15.85,26.08,23.78,47.22,23.78
		c20.91,0,36.54-7.93,46.89-23.78c10.34-15.85,15.52-39.07,15.52-69.65V9.84h-31.03V199.4z"/>
	<path d="M775.31,249.66v-58.02c0-12.14-1.91-21.25-5.73-27.32c-3.35-5.32-9.21-10.04-17.57-14.15c6.08-3.6,11.04-8.22,14.87-13.85
		c7.64-11.24,11.47-27.77,11.47-49.59c0-15.29-2.64-28.78-7.93-40.48c-5.29-11.69-12.48-20.69-21.59-26.98
		c-9.11-6.29-19.17-9.45-30.19-9.45h-30.7h-15.18h-15.85v269.85h31.03v-104.9h32.04c8.1,0,13.94,2.14,17.54,6.41
		c3.59,4.27,5.4,11.25,5.4,20.91v48.23c0,8.77,0.22,15.18,0.67,19.23c0.45,4.05,1.35,7.42,2.7,10.12h32.72
		c-1.58-3.37-2.59-7.03-3.04-10.96C775.53,264.79,775.31,258.43,775.31,249.66z M687.94,128.57V53.69h25.3
		c10.79,0,19,3.04,24.62,9.11c5.62,6.07,8.43,14.84,8.43,26.31v3.37c0,7.42-1.18,13.89-3.54,19.39c-2.36,5.51-5.34,9.67-8.94,12.48
		c-3.6,2.82-7.2,4.22-10.79,4.22H687.94z"/>
	<polygon points="792.84,9.83 790.15,9.83 790.15,279.68 792.84,279.68 792.84,279.68 893.36,279.68 893.36,234.48 821.18,234.48 
		821.18,165 891,165 891,119.8 821.18,119.8 821.18,55.03 893.36,55.03 893.36,9.83 821.18,9.83 	"/>
	<path d="M1043.8,125.87l-18.89-6.07c-6.97-2.24-12.37-4.61-16.19-7.08c-3.83-2.47-6.69-5.62-8.6-9.44
		c-1.91-3.82-2.87-8.77-2.87-14.84v-9.44c0-9.67,2.14-16.75,6.41-21.25c4.27-4.49,10.68-6.75,19.23-6.75
		c10.34,0,17.54,3.43,21.59,10.29c4.05,6.86,6.41,16.59,7.08,29.18h29.01c0-26.98-5.01-47.73-15.01-62.23
		c-10.01-14.5-24.35-21.76-43.01-21.76c-11.02,0-20.69,3.26-29.01,9.78c-8.32,6.53-14.79,15.74-19.4,27.66
		c-4.61,11.92-6.91,25.64-6.91,41.15c0,21.14,3.26,37.73,9.78,49.75c6.52,12.03,16.75,20.52,30.7,25.47l18.55,6.41
		c8.54,2.93,15.23,6.8,20.07,11.64c4.83,4.84,7.25,10.85,7.25,18.05v10.79c0,10.12-2.81,17.88-8.43,23.27
		c-5.62,5.4-13.16,8.09-22.6,8.09c-10.35,0-18.04-4.05-23.11-12.14c-5.06-8.09-7.82-19.23-8.26-33.39h-30.02
		c0,29.46,5.28,51.83,15.85,67.12c10.57,15.29,25.97,22.94,46.21,22.94c11.69,0,22.2-3.54,31.54-10.62
		c9.33-7.08,16.64-16.92,21.93-29.52c5.28-12.59,7.93-26.87,7.93-42.84c0-21.81-3.15-38.45-9.45-49.92
		C1068.87,138.69,1058.41,130.59,1043.8,125.87z"/>
	<polygon points="1181.08,9.84 1151.06,119.46 1141.61,119.46 1111.59,9.84 1076.18,9.84 1130.15,185.24 1130.15,279.68 
		1161.18,279.68 1161.18,185.24 1215.15,9.84 	"/>
	<path d="M1285.98,125.87l-18.89-6.07c-6.97-2.24-12.37-4.61-16.19-7.08c-3.83-2.47-6.69-5.62-8.6-9.44
		c-1.91-3.82-2.87-8.77-2.87-14.84v-9.44c0-9.67,2.14-16.75,6.41-21.25c4.27-4.49,10.68-6.75,19.23-6.75
		c10.34,0,17.54,3.43,21.59,10.29c4.05,6.86,6.41,16.59,7.08,29.18h29.01c0-26.98-5.01-47.73-15.01-62.23
		c-10.01-14.5-24.35-21.76-43.01-21.76c-11.02,0-20.69,3.26-29.01,9.78c-8.32,6.53-14.79,15.74-19.4,27.66
		c-4.61,11.92-6.91,25.64-6.91,41.15c0,21.14,3.26,37.73,9.78,49.75c6.52,12.03,16.75,20.52,30.7,25.47l18.55,6.41
		c8.54,2.93,15.23,6.8,20.07,11.64c4.83,4.84,7.25,10.85,7.25,18.05v10.79c0,10.12-2.81,17.88-8.43,23.27
		c-5.62,5.4-13.16,8.09-22.6,8.09c-10.35,0-18.05-4.05-23.1-12.14c-5.06-8.09-7.82-19.23-8.26-33.39h-30.02
		c0,29.46,5.28,51.83,15.85,67.12c10.57,15.29,25.97,22.94,46.21,22.94c11.69,0,22.2-3.54,31.54-10.62
		c9.33-7.08,16.64-16.92,21.93-29.52c5.28-12.59,7.93-26.87,7.93-42.84c0-21.81-3.15-38.45-9.45-49.92
		C1311.05,138.69,1300.59,130.59,1285.98,125.87z"/>
	<polygon points="1376.38,9.83 1327.8,9.83 1327.8,55.03 1376.38,55.03 1376.38,279.68 1407.41,279.68 1407.41,55.03 1455.98,55.03 
		1455.98,9.83 1407.41,9.83 	"/>
	<polygon points="1470.48,9.83 1467.78,9.83 1467.78,279.68 1470.48,279.68 1470.48,279.68 1571,279.68 1571,234.48 1498.81,234.48 
		1498.81,165 1568.64,165 1568.64,119.8 1498.81,119.8 1498.81,55.03 1571,55.03 1571,9.83 1498.81,9.83 	"/>
	<polygon points="1711.66,9.83 1693.78,9.83 1666.46,210.2 1657.35,210.2 1630.7,9.83 1612.15,9.83 1608.78,9.83 1583.14,9.83 
		1583.14,279.68 1612.15,279.68 1612.15,112.38 1612.82,112.38 1641.16,279.68 1680.96,279.68 1710.98,112.38 1711.66,112.38 
		1711.66,279.68 1740.66,279.68 1740.66,9.83 1715.03,9.83 	"/>
	<path d="M1831.73,125.87l-18.89-6.07c-6.97-2.24-12.37-4.61-16.19-7.08c-3.83-2.47-6.69-5.62-8.6-9.44
		c-1.91-3.82-2.87-8.77-2.87-14.84v-9.44c0-9.67,2.14-16.75,6.41-21.25c4.27-4.49,10.68-6.75,19.23-6.75
		c10.34,0,17.54,3.43,21.59,10.29c4.05,6.86,6.41,16.59,7.08,29.18h29.01c0-26.98-5.01-47.73-15.01-62.23
		c-10.01-14.5-24.34-21.76-43.01-21.76c-11.02,0-20.69,3.26-29.01,9.78c-8.32,6.53-14.79,15.74-19.39,27.66
		c-4.61,11.92-6.91,25.64-6.91,41.15c0,21.14,3.26,37.73,9.78,49.75c6.52,12.03,16.75,20.52,30.7,25.47l18.55,6.41
		c8.54,2.93,15.23,6.8,20.07,11.64c4.83,4.84,7.25,10.85,7.25,18.05v10.79c0,10.12-2.82,17.88-8.43,23.27
		c-5.62,5.4-13.16,8.09-22.6,8.09c-10.35,0-18.04-4.05-23.1-12.14c-5.06-8.09-7.82-19.23-8.26-33.39h-30.02
		c0,29.46,5.28,51.83,15.85,67.12c10.57,15.29,25.97,22.94,46.21,22.94c11.69,0,22.2-3.54,31.54-10.62
		c9.33-7.08,16.64-16.92,21.93-29.52c5.28-12.59,7.93-26.87,7.93-42.84c0-21.81-3.15-38.45-9.45-49.92
		C1856.8,138.69,1846.35,130.59,1831.73,125.87z"/>
	<path d="M1888.52,25.03c2.45-1.01,3.72-3,3.72-5.43c0-3.46-2.63-6.24-6.96-6.24h-9.01v21.71h2.48v-9.36h6.27
		c3.7,0,3.49,7.19,4.94,9.36h2.83C1890.34,30.35,1891.29,26.65,1888.52,25.03z M1885.23,23.27h-6.47v-7.45h6.47
		c2.8,0,4.48,1.53,4.48,3.67C1889.7,21.74,1887.86,23.27,1885.23,23.27z"/>
	<path d="M1884.54,4.95c-10.63,0-19.28,8.65-19.28,19.28c0,10.63,8.65,19.28,19.28,19.28c10.63,0,19.28-8.65,19.28-19.28
		C1903.82,13.59,1895.17,4.95,1884.54,4.95z M1884.54,40.47c-8.96,0-16.25-7.29-16.25-16.24s7.29-16.25,16.25-16.25
		c8.96,0,16.24,7.29,16.24,16.25S1893.49,40.47,1884.54,40.47z"/>
</g>
</svg>
