<svg width="163" height="64" viewBox="0 0 163 64" fill="none" xmlns="http://www.w3.org/2000/svg">
<path d="M0 48.9135H3.70297L6.30441 57.8559L8.94242 48.9135H11.8934L14.5822 57.8559L17.1329 48.9135H20.8013L16.5232 63.2884H12.9767L10.426 54.5899L7.92827 63.2884H4.34927L0 48.9135Z" fill="black"/>
<path d="M27.8208 63.5485C23.4715 63.5485 20.3457 60.0731 20.3457 56.0734C20.3457 52.0737 23.4715 48.6146 27.8208 48.6146C32.17 48.6146 35.2795 52.09 35.2795 56.0734C35.2795 60.0569 32.1538 63.5485 27.8208 63.5485ZM27.8208 52.1428C25.5323 52.1428 23.8739 53.9252 23.8739 56.0734C23.8739 58.2216 25.5323 60.0203 27.8208 60.0203C30.1092 60.0203 31.7514 58.2216 31.7514 56.0734C31.7514 53.9252 30.0929 52.1428 27.8208 52.1428Z" fill="black"/>
<path d="M42.9641 63.2862L41.7589 60.3698C41.4276 60.4226 41.0597 60.4389 40.6756 60.4389H40.0822V63.3025H36.5723V48.893H40.1696C44.9212 48.893 46.6833 51.6692 46.6833 54.6568C46.6833 56.3518 46.1061 57.9757 44.8501 59.0589L47.0329 63.2862H42.9641ZM40.7813 57.0164C42.4052 57.0164 43.2445 56.0043 43.2445 54.6588C43.2445 53.3134 42.3889 52.3175 40.7813 52.3175H40.0822V57.0164H40.7813Z" fill="black"/>
<path d="M48.291 48.8768H51.6627C57.1643 48.8768 59.5056 52.1245 59.5056 56.0368C59.5056 59.9491 57.1643 63.2842 51.6627 63.2842H48.291V48.8748V48.8768ZM52.0976 59.7398C54.8048 59.7398 55.9754 58.0631 55.9754 56.0368C55.9754 54.0106 54.8048 52.403 52.0976 52.403H51.8009V59.7378H52.0976V59.7398Z" fill="black"/>
<path d="M72.7407 63.5485C68.3914 63.5485 65.2656 60.0731 65.2656 56.0734C65.2656 52.0737 68.3914 48.6146 72.7407 48.6146C77.0899 48.6146 80.1995 52.09 80.1995 56.0734C80.1995 60.0569 77.0737 63.5485 72.7407 63.5485ZM72.7407 52.1428C70.4522 52.1428 68.7938 53.9252 68.7938 56.0734C68.7938 58.2216 70.4522 60.0203 72.7407 60.0203C75.0291 60.0203 76.6713 58.2216 76.6713 56.0734C76.6713 53.9252 75.0129 52.1428 72.7407 52.1428Z" fill="black"/>
<path d="M81.8389 48.8768H89.7326V52.2119H85.3488V54.7788H89.3302V57.7663H85.3488V63.2863H81.8389V48.8768Z" fill="black"/>
<path d="M96.1777 48.9135H100.842L104.51 58.6769L108.126 48.9135H112.754V63.2884H109.244V54.8703L106.047 63.2884H102.921L99.6897 54.7646V63.2884H96.1798V48.9135H96.1777Z" fill="black"/>
<path d="M121.52 63.5485C117.171 63.5485 114.045 60.0731 114.045 56.0734C114.045 52.0737 117.171 48.6146 121.52 48.6146C125.869 48.6146 128.979 52.09 128.979 56.0734C128.979 60.0569 125.853 63.5485 121.52 63.5485ZM121.52 52.1428C119.232 52.1428 117.573 53.9252 117.573 56.0734C117.573 58.2216 119.232 60.0203 121.52 60.0203C123.808 60.0203 125.451 58.2216 125.451 56.0734C125.451 53.9252 123.792 52.1428 121.52 52.1428Z" fill="black"/>
<path d="M130.097 57.8029V48.8951H133.625V57.9249C133.625 59.1301 134.044 60.1077 135.407 60.1077C136.771 60.1077 137.19 59.1301 137.19 57.9249V48.8951H140.718V57.8029C140.718 61.2783 138.692 63.5139 135.409 63.5139C132.127 63.5139 130.101 61.26 130.101 57.8029H130.097Z" fill="black"/>
<path d="M144.713 52.2139H141.831V48.8788H151.123V52.2139H148.223V63.2862H144.713V52.2139Z" fill="black"/>
<path d="M152.416 48.8768H155.926V54.291H159.472V48.8768H163.001V63.2863H159.472V57.6627H155.926V63.2863H152.416V48.8768Z" fill="black"/>
<path d="M82.8816 3.31264C87.554 3.31264 91.948 5.13161 95.2506 8.43624C98.5552 11.7409 100.374 16.1328 100.374 20.8052C100.374 25.4776 98.5552 29.8716 95.2506 33.1742C91.946 36.4789 87.554 38.2978 82.8816 38.2978C78.2092 38.2978 73.8152 36.4789 70.5126 33.1742C67.208 29.8696 65.389 25.4776 65.389 20.8052C65.389 16.1328 67.208 11.7388 70.5126 8.43624C73.8172 5.13161 78.2092 3.31264 82.8816 3.31264ZM82.8816 -0.00012207C71.3906 -0.00012207 62.0742 9.31625 62.0742 20.8073C62.0742 32.2983 71.3906 41.6147 82.8816 41.6147C94.3726 41.6147 103.689 32.2983 103.689 20.8073C103.689 9.31625 94.3726 -0.00012207 82.8816 -0.00012207V-0.00012207Z" fill="black"/>
<path d="M82.8811 35.0135C80.0317 35.0135 77.2962 34.1498 74.9732 32.5178C72.703 30.9224 70.9836 28.7132 70.002 26.13C69.6768 25.2744 70.1077 24.3172 70.9633 23.994C71.8189 23.6688 72.7762 24.0997 73.0993 24.9553C73.8452 26.9186 75.152 28.5973 76.8775 29.8086C78.6416 31.0484 80.7166 31.7028 82.8811 31.7028C85.0456 31.7028 87.1227 31.0484 88.8847 29.8086C90.6102 28.5953 91.917 26.9186 92.6629 24.9553C92.9881 24.0997 93.9433 23.6688 94.7989 23.994C95.6546 24.3192 96.0854 25.2744 95.7602 26.13C94.7786 28.7152 93.0613 30.9244 90.7891 32.5198C88.464 34.1518 85.7305 35.0155 82.8811 35.0155V35.0135Z" fill="black"/>
<path d="M79.6885 22.5205C79.2922 22.5205 78.902 22.3783 78.5931 22.108L75.6055 19.4761L71.7298 22.2177C71.2237 22.5754 70.5611 22.6201 70.0124 22.3356C69.4616 22.0511 69.1182 21.484 69.1182 20.8642V12.6534C69.1182 11.7388 69.86 10.997 70.7745 10.997C71.6891 10.997 72.4309 11.7388 72.4309 12.6534V17.6632L74.762 16.0149C75.388 15.5719 76.2376 15.6166 76.8127 16.1247L78.0301 17.1978V8.90571C78.0301 7.99114 78.7719 7.24933 79.6865 7.24933C80.601 7.24933 81.3429 7.99114 81.3429 8.90571V20.8642C81.3429 21.5145 80.9608 22.1059 80.3673 22.3742C80.1478 22.4738 79.9161 22.5205 79.6865 22.5205H79.6885Z" fill="black"/>
<path d="M94.9884 22.5206C94.0738 22.5206 93.332 21.7788 93.332 20.8642V16.521L91.1858 18.5656C90.7997 18.9335 90.2611 19.092 89.7368 18.9944C89.2124 18.8969 88.7694 18.5514 88.5417 18.0697L87.7288 16.3361V20.8642C87.7288 21.7788 86.987 22.5206 86.0724 22.5206C85.1578 22.5206 84.416 21.7788 84.416 20.8642V8.90576C84.416 8.12939 84.9546 7.45871 85.7127 7.28799C86.4707 7.1193 87.243 7.49936 87.5723 8.20052L90.5639 14.5801L93.8442 11.4543C94.3238 10.9971 95.0311 10.869 95.6388 11.1312C96.2485 11.3913 96.6427 11.9909 96.6427 12.6534V20.8642C96.6427 21.7788 95.9009 22.5206 94.9864 22.5206H94.9884Z" fill="black"/>
</svg>
