<?xml version="1.0" standalone="no"?>
<!DOCTYPE svg PUBLIC "-//W3C//DTD SVG 20010904//EN"
 "http://www.w3.org/TR/2001/REC-SVG-20010904/DTD/svg10.dtd">
<svg version="1.0" xmlns="http://www.w3.org/2000/svg"
 width="624.000000pt" height="624.000000pt" viewBox="0 0 624.000000 624.000000"
 preserveAspectRatio="xMidYMid meet">
<metadata>
Created by potrace 1.14, written by Peter Selinger 2001-2017
</metadata>
<g transform="translate(0.000000,624.000000) scale(0.100000,-0.100000)"
fill="#000000" stroke="none">
<path d="M2069 5868 c0 -7 -2 -161 -2 -343 l-2 -330 -342 -3 c-189 -1 -343 -6
-344 -10 0 -4 -1 -313 -2 -687 l-2 -680 -330 -2 c-181 0 -336 -1 -342 -2 -10
-1 -13 -77 -13 -344 l0 -342 -345 0 -345 0 2 -689 3 -689 685 -1 685 -1 1
-338 c1 -186 4 -340 7 -344 5 -4 554 -8 663 -4 20 1 21 4 20 324 -1 177 1 331
2 343 4 21 6 21 343 21 186 -1 340 -3 340 -6 1 -3 3 -312 4 -686 1 -374 3
-682 4 -685 1 -5 515 -3 631 3 l55 2 1 680 c1 374 2 682 3 685 0 3 154 6 341
6 305 1 340 -1 341 -15 0 -9 2 -162 3 -341 2 -179 4 -327 5 -330 0 -3 154 -4
341 -3 251 1 340 -2 341 -10 0 -7 1 -162 1 -344 l0 -333 344 0 344 0 0 344 0
344 -302 1 c-167 0 -321 0 -344 0 l-41 1 0 343 0 343 680 -1 c373 0 683 2 687
5 5 3 9 14 9 25 0 11 0 83 0 160 -1 77 -1 147 0 155 2 30 0 84 -4 88 -2 2 1
17 5 33 5 16 5 29 0 29 -5 0 -5 12 -1 28 4 15 5 38 1 52 -4 14 -3 37 1 53 4
15 4 27 -1 27 -5 0 -5 12 -1 28 4 15 5 38 1 52 -4 14 -3 37 1 53 4 15 4 27 -1
27 -5 0 -5 12 -1 28 4 15 5 38 1 52 -3 14 -4 35 -1 48 3 12 4 81 1 153 -3 72
-2 135 1 141 3 5 3 26 -1 46 -3 21 -3 49 1 64 4 17 3 28 -5 30 -6 3 -163 4
-348 4 l-338 -1 0 345 0 345 -343 -1 -344 0 0 683 c0 376 -2 685 -4 688 -3 2
-158 5 -345 5 l-340 1 0 342 0 342 -1032 3 c-822 2 -1032 0 -1033 -10z m1377
-1013 c1 -181 2 -335 3 -341 1 -9 94 -11 341 -10 l340 1 1 -25 c3 -73 4 -637
1 -650 -3 -14 -111 -16 -1032 -16 l-1028 0 -4 20 c-6 41 -2 655 5 662 4 4 158
7 342 7 184 0 336 2 336 6 1 3 2 155 3 336 1 182 4 335 8 340 4 7 124 8 345 5
l338 -5 1 -330z m-2069 -2060 c1 -182 0 -337 -3 -345 -3 -13 -48 -15 -341 -15
l-338 0 -3 335 c-1 184 -1 339 2 345 2 7 123 10 342 10 l339 0 2 -330z m1374
325 c1 -3 2 -155 3 -338 1 -216 -2 -336 -9 -340 -5 -4 -159 -7 -342 -7 -288 0
-332 2 -335 15 -3 13 -2 598 1 655 1 20 8 20 341 20 187 0 341 -2 341 -5z
m1380 -10 c7 -114 2 -663 -6 -668 -12 -8 -674 -10 -676 -2 -6 22 -4 667 2 675
5 6 131 10 343 10 292 0 336 -2 337 -15z m1374 -330 l0 -345 -341 0 -341 0 0
345 0 345 341 0 341 0 0 -345z"/>
<path d="M690 714 l0 -344 344 0 343 0 -1 343 -1 342 -342 2 -343 1 0 -344z"/>
</g>
</svg>
