<svg width="13" height="604" viewBox="0 0 13 604" fill="none" xmlns="http://www.w3.org/2000/svg">
<g opacity="0.7">
<line x1="11.4038" y1="603" x2="2.40381" y2="603" stroke="#FEFAF6" stroke-width="2" stroke-linecap="round"/>
<line x1="3.40381" y1="588" x2="2.40381" y2="588" stroke="#FEFAF6" stroke-width="2" stroke-linecap="round"/>
<line x1="3.40381" y1="573" x2="2.40381" y2="573" stroke="#FEFAF6" stroke-width="2" stroke-linecap="round"/>
<line x1="3.40381" y1="558" x2="2.40381" y2="558" stroke="#FEFAF6" stroke-width="2" stroke-linecap="round"/>
<line x1="3.40381" y1="543" x2="2.40381" y2="543" stroke="#FEFAF6" stroke-width="2" stroke-linecap="round"/>
<line x1="6.40381" y1="528" x2="2.40381" y2="528" stroke="#FEFAF6" stroke-width="2" stroke-linecap="round"/>
<line x1="3.40381" y1="513" x2="2.40381" y2="513" stroke="#FEFAF6" stroke-width="2" stroke-linecap="round"/>
<line x1="3.40381" y1="498" x2="2.40381" y2="498" stroke="#FEFAF6" stroke-width="2" stroke-linecap="round"/>
<line x1="3.40381" y1="483" x2="2.40381" y2="483" stroke="#FEFAF6" stroke-width="2" stroke-linecap="round"/>
<line x1="3.40381" y1="468" x2="2.40381" y2="468" stroke="#FEFAF6" stroke-width="2" stroke-linecap="round"/>
<line x1="9.40381" y1="453" x2="2.40381" y2="453" stroke="#FEFAF6" stroke-width="2" stroke-linecap="round"/>
<line x1="3.40381" y1="438" x2="2.40381" y2="438" stroke="#FEFAF6" stroke-width="2" stroke-linecap="round"/>
<line x1="3.40381" y1="423" x2="2.40381" y2="423" stroke="#FEFAF6" stroke-width="2" stroke-linecap="round"/>
<line x1="3.40381" y1="408" x2="2.40381" y2="408" stroke="#FEFAF6" stroke-width="2" stroke-linecap="round"/>
<line x1="3.40381" y1="393" x2="2.40381" y2="393" stroke="#FEFAF6" stroke-width="2" stroke-linecap="round"/>
<line x1="6.40381" y1="378" x2="2.40381" y2="378" stroke="#FEFAF6" stroke-width="2" stroke-linecap="round"/>
<line x1="1" y1="-1" x2="2" y2="-1" transform="matrix(-1 0 0 1 4.40381 362)" stroke="#FEFAF6" stroke-width="2" stroke-linecap="round"/>
<line x1="1" y1="-1" x2="2" y2="-1" transform="matrix(-1 0 0 1 4.40381 347)" stroke="#FEFAF6" stroke-width="2" stroke-linecap="round"/>
<line x1="1" y1="-1" x2="2" y2="-1" transform="matrix(-1 0 0 1 4.40381 332)" stroke="#FEFAF6" stroke-width="2" stroke-linecap="round"/>
<line x1="1" y1="-1" x2="2" y2="-1" transform="matrix(-1 8.74228e-08 8.74228e-08 1 4.40381 317)" stroke="#FEFAF6" stroke-width="2" stroke-linecap="round"/>
<line x1="1" y1="-1" x2="7" y2="-1" transform="matrix(-1 8.74228e-08 8.74228e-08 1 9.40381 302)" stroke="#FEFAF6" stroke-width="2" stroke-linecap="round"/>
<line x1="1" y1="-1" x2="2" y2="-1" transform="matrix(-1 8.74228e-08 8.74228e-08 1 4.40381 287)" stroke="#FEFAF6" stroke-width="2" stroke-linecap="round"/>
<line x1="1" y1="-1" x2="2" y2="-1" transform="matrix(-1 8.74228e-08 8.74228e-08 1 4.40381 272)" stroke="#FEFAF6" stroke-width="2" stroke-linecap="round"/>
<line x1="1" y1="-1" x2="2" y2="-1" transform="matrix(-1 8.74228e-08 8.74228e-08 1 4.40381 257)" stroke="#FEFAF6" stroke-width="2" stroke-linecap="round"/>
<line x1="1" y1="-1" x2="2" y2="-1" transform="matrix(-1 8.74228e-08 8.74228e-08 1 4.40381 242)" stroke="#FEFAF6" stroke-width="2" stroke-linecap="round"/>
<line x1="1" y1="-1" x2="10" y2="-1" transform="matrix(-1 8.74228e-08 8.74228e-08 1 12.4038 227)" stroke="#FEFAF6" stroke-width="2" stroke-linecap="round"/>
<line x1="1" y1="-1" x2="2" y2="-1" transform="matrix(-1 8.74228e-08 8.74228e-08 1 4.40381 212)" stroke="#FEFAF6" stroke-width="2" stroke-linecap="round"/>
<line x1="1" y1="-1" x2="2" y2="-1" transform="matrix(-1 8.74228e-08 8.74228e-08 1 4.40381 197)" stroke="#FEFAF6" stroke-width="2" stroke-linecap="round"/>
<line x1="1" y1="-1" x2="2" y2="-1" transform="matrix(-1 8.74228e-08 8.74228e-08 1 4.40381 182)" stroke="#FDFFF4" stroke-width="2" stroke-linecap="round"/>
<line x1="1" y1="-1" x2="2" y2="-1" transform="matrix(-1 8.74228e-08 8.74228e-08 1 4.40381 167)" stroke="#FEFAF6" stroke-width="2" stroke-linecap="round"/>
<line x1="1" y1="-1" x2="7" y2="-1" transform="matrix(-1 8.74228e-08 8.74228e-08 1 9.40381 152)" stroke="#FEFAF6" stroke-width="2" stroke-linecap="round"/>
<line x1="1" y1="-1" x2="2" y2="-1" transform="matrix(-1 8.74228e-08 8.74228e-08 1 4.40381 137)" stroke="#FEFAF6" stroke-width="2" stroke-linecap="round"/>
<line x1="1" y1="-1" x2="2" y2="-1" transform="matrix(-1 8.74228e-08 8.74228e-08 1 4.40381 122)" stroke="#FEFAF6" stroke-width="2" stroke-linecap="round"/>
<line x1="1" y1="-1" x2="2" y2="-1" transform="matrix(-1 8.74228e-08 8.74228e-08 1 4.40381 107)" stroke="#FEFAF6" stroke-width="2" stroke-linecap="round"/>
<line x1="1" y1="-1" x2="2" y2="-1" transform="matrix(-1 8.74228e-08 8.74228e-08 1 4.40381 92)" stroke="#FEFAF6" stroke-width="2" stroke-linecap="round"/>
<line x1="1" y1="-1" x2="10" y2="-1" transform="matrix(-1 8.74228e-08 8.74228e-08 1 12.4038 77)" stroke="#FEFAF6" stroke-width="2" stroke-linecap="round"/>
<line x1="1" y1="-1" x2="2" y2="-1" transform="matrix(-1 8.74228e-08 8.74228e-08 1 4.40381 62)" stroke="#FEFAF6" stroke-width="2" stroke-linecap="round"/>
<line x1="1" y1="-1" x2="2" y2="-1" transform="matrix(-1 8.74228e-08 8.74228e-08 1 4.40381 47)" stroke="#FEFAF6" stroke-width="2" stroke-linecap="round"/>
<line x1="1" y1="-1" x2="2" y2="-1" transform="matrix(-1 8.74228e-08 8.74228e-08 1 4.40381 32)" stroke="#FEFAF6" stroke-width="2" stroke-linecap="round"/>
<line x1="1" y1="-1" x2="2" y2="-1" transform="matrix(-1 8.74228e-08 8.74228e-08 1 4.40381 17)" stroke="#FEFAF6" stroke-width="2" stroke-linecap="round"/>
<line x1="1" y1="-1" x2="10" y2="-1" transform="matrix(-1 8.74228e-08 8.74228e-08 1 12.4038 2)" stroke="#FEFAF6" stroke-width="2" stroke-linecap="round"/>
</g>
<path d="M0.119833 154.016C-0.359445 154.955 0.689488 156.323 1.66885 155.931L11.7752 151.889C12.6133 151.553 12.6133 150.367 11.7752 150.032L1.66885 145.989C0.689485 145.597 -0.359445 146.965 0.119832 147.905C0.626975 148.899 1.01334 149.979 1.01334 150.96C1.01334 151.942 0.626977 153.021 0.119833 154.016Z" fill="#FEFAF6"/>
</svg>
