<svg width="12" height="604" viewBox="0 0 12 604" fill="none" xmlns="http://www.w3.org/2000/svg">
<g opacity="0.7">
<line x1="1" y1="-1" x2="10" y2="-1" transform="matrix(-1 0 0 1 12 2)" stroke="#FEFAF6" stroke-width="2" stroke-linecap="round"/>
<line x1="1" y1="-1" x2="2" y2="-1" transform="matrix(-1 0 0 1 4 17)" stroke="#FEFAF6" stroke-width="2" stroke-linecap="round"/>
<line x1="1" y1="-1" x2="2" y2="-1" transform="matrix(-1 0 0 1 4 32)" stroke="#FEFAF6" stroke-width="2" stroke-linecap="round"/>
<line x1="1" y1="-1" x2="2" y2="-1" transform="matrix(-1 0 0 1 4 47)" stroke="#FEFAF6" stroke-width="2" stroke-linecap="round"/>
<line x1="1" y1="-1" x2="2" y2="-1" transform="matrix(-1 0 0 1 4 62)" stroke="#FEFAF6" stroke-width="2" stroke-linecap="round"/>
<line x1="1" y1="-1" x2="5" y2="-1" transform="matrix(-1 0 0 1 7 77)" stroke="#FEFAF6" stroke-width="2" stroke-linecap="round"/>
<line x1="1" y1="-1" x2="2" y2="-1" transform="matrix(-1 0 0 1 4 92)" stroke="#FEFAF6" stroke-width="2" stroke-linecap="round"/>
<line x1="1" y1="-1" x2="2" y2="-1" transform="matrix(-1 0 0 1 4 107)" stroke="#FEFAF6" stroke-width="2" stroke-linecap="round"/>
<line x1="1" y1="-1" x2="2" y2="-1" transform="matrix(-1 0 0 1 4 122)" stroke="#FEFAF6" stroke-width="2" stroke-linecap="round"/>
<line x1="1" y1="-1" x2="2" y2="-1" transform="matrix(-1 0 0 1 4 137)" stroke="#FEFAF6" stroke-width="2" stroke-linecap="round"/>
<line x1="1" y1="-1" x2="8" y2="-1" transform="matrix(-1 -8.74228e-08 -8.74228e-08 1 10 152)" stroke="#FEFAF6" stroke-width="2" stroke-linecap="round"/>
<line x1="1" y1="-1" x2="2" y2="-1" transform="matrix(-1 0 0 1 4 167)" stroke="#FEFAF6" stroke-width="2" stroke-linecap="round"/>
<line x1="1" y1="-1" x2="2" y2="-1" transform="matrix(-1 -8.74228e-08 -8.74228e-08 1 4 182)" stroke="#FEFAF6" stroke-width="2" stroke-linecap="round"/>
<line x1="1" y1="-1" x2="2" y2="-1" transform="matrix(-1 -8.74228e-08 -8.74228e-08 1 4 197)" stroke="#FEFAF6" stroke-width="2" stroke-linecap="round"/>
<line x1="1" y1="-1" x2="2" y2="-1" transform="matrix(-1 -8.74228e-08 -8.74228e-08 1 4 212)" stroke="#FEFAF6" stroke-width="2" stroke-linecap="round"/>
<line x1="1" y1="-1" x2="5" y2="-1" transform="matrix(-1 0 0 1 7 227)" stroke="#FEFAF6" stroke-width="2" stroke-linecap="round"/>
<line x1="3" y1="243" x2="2" y2="243" stroke="#FEFAF6" stroke-width="2" stroke-linecap="round"/>
<line x1="3" y1="258" x2="2" y2="258" stroke="#FEFAF6" stroke-width="2" stroke-linecap="round"/>
<line x1="3" y1="273" x2="2" y2="273" stroke="#FEFAF6" stroke-width="2" stroke-linecap="round"/>
<line x1="3" y1="288" x2="2" y2="288" stroke="#FEFAF6" stroke-width="2" stroke-linecap="round"/>
<line x1="8" y1="303" x2="2" y2="303" stroke="#FEFAF6" stroke-width="2" stroke-linecap="round"/>
<line x1="3" y1="318" x2="2" y2="318" stroke="#FEFAF6" stroke-width="2" stroke-linecap="round"/>
<line x1="3" y1="333" x2="2" y2="333" stroke="#FEFAF6" stroke-width="2" stroke-linecap="round"/>
<line x1="3" y1="348" x2="2" y2="348" stroke="#FEFAF6" stroke-width="2" stroke-linecap="round"/>
<line x1="3" y1="363" x2="2" y2="363" stroke="#FEFAF6" stroke-width="2" stroke-linecap="round"/>
<line x1="11" y1="378" x2="2" y2="378" stroke="#FEFAF6" stroke-width="2" stroke-linecap="round"/>
<line x1="3" y1="393" x2="2" y2="393" stroke="#FEFAF6" stroke-width="2" stroke-linecap="round"/>
<line x1="3" y1="408" x2="2" y2="408" stroke="#FEFAF6" stroke-width="2" stroke-linecap="round"/>
<line x1="3" y1="423" x2="2" y2="423" stroke="#FDFFF4" stroke-width="2" stroke-linecap="round"/>
<line x1="3" y1="438" x2="2" y2="438" stroke="#FEFAF6" stroke-width="2" stroke-linecap="round"/>
<line x1="11" y1="453" x2="2" y2="453" stroke="#FEFAF6" stroke-width="2" stroke-linecap="round"/>
<line x1="3" y1="468" x2="2" y2="468" stroke="#FEFAF6" stroke-width="2" stroke-linecap="round"/>
<line x1="3" y1="483" x2="2" y2="483" stroke="#FEFAF6" stroke-width="2" stroke-linecap="round"/>
<line x1="3" y1="498" x2="2" y2="498" stroke="#FEFAF6" stroke-width="2" stroke-linecap="round"/>
<line x1="3" y1="513" x2="2" y2="513" stroke="#FEFAF6" stroke-width="2" stroke-linecap="round"/>
<line x1="11" y1="528" x2="2" y2="528" stroke="#FEFAF6" stroke-width="2" stroke-linecap="round"/>
<line x1="3" y1="543" x2="2" y2="543" stroke="#FEFAF6" stroke-width="2" stroke-linecap="round"/>
<line x1="3" y1="558" x2="2" y2="558" stroke="#FEFAF6" stroke-width="2" stroke-linecap="round"/>
<line x1="3" y1="573" x2="2" y2="573" stroke="#FEFAF6" stroke-width="2" stroke-linecap="round"/>
<line x1="3" y1="588" x2="2" y2="588" stroke="#FEFAF6" stroke-width="2" stroke-linecap="round"/>
<line x1="11" y1="603" x2="2" y2="603" stroke="#FEFAF6" stroke-width="2" stroke-linecap="round"/>
</g>
<path d="M0.106369 300.01C-0.34298 299.055 0.718597 297.677 1.69796 298.068L10.4505 301.569C11.2886 301.905 11.2886 303.091 10.4505 303.426L1.69796 306.927C0.718596 307.319 -0.342981 305.94 0.106368 304.986C0.493412 304.164 0.771685 303.296 0.771685 302.498C0.771685 301.7 0.493412 300.831 0.106369 300.01Z" fill="#FEFAF6"/>
</svg>
