<svg width="30" height="17" viewBox="0 0 30 17" fill="none" xmlns="http://www.w3.org/2000/svg">
<path d="M10.2749 2.37648H12.6514V0H10.2749H7.89846H5.52197V2.37648H7.89846H10.2749Z" fill="#283618"/>
<path d="M12.6514 9.50366V11.8778V14.2543V16.6308H15.0255V14.2543V11.8778V9.50366H12.6514Z" fill="#283618"/>
<path d="M7.89846 14.2544H5.52197V16.6309H7.89846H10.2749H12.6514V14.2544H10.2749H7.89846Z" fill="#283618"/>
<path d="M3.14567 9.77997V9.50364H5.52215H7.89864H10.2751V7.12715H12.6516V4.75067V2.37418V0H10.2751V2.37418V4.75067V7.12715H7.89864H5.52215H3.14567V6.35571V4.75067V2.37418V0H0.771484V2.37418V4.75067V7.12715V9.77997V13.2042V16.6308H3.14567V13.2042V9.77997Z" fill="#283618"/>
<path d="M24.4741 2.52384H26.9496V0.0483398H24.4741H22.0009H19.5254V2.52384H22.0009H24.4741Z" fill="#283618"/>
<path d="M24.4946 6.68278H26.9701L26.9724 4.20728H24.4946H22.0214H19.5459V6.68278H22.0214H24.4946Z" fill="#283618"/>
<path d="M22.0214 14.1069L19.5459 14.1046V16.5824H22.0214H24.4946H26.9701V14.1069H24.4946H22.0214Z" fill="#283618"/>
<path d="M26.9705 6.68275H26.8738L26.906 9.1076L25.0408 9.13293L24.4305 9.13983L21.9251 9.17438L21.2665 9.18128L19.5463 9.20431V9.15595V6.68275H17.0731L17.0708 9.15595V11.6315V14.1047H19.5463V11.6798L21.2987 11.6568L21.9573 11.6499L24.4628 11.6153L25.073 11.6084L26.9383 11.5831L26.906 9.15826L29.3815 9.12602L29.3493 6.65051L26.9705 6.68275Z" fill="#283618"/>
</svg>
