<svg width="22" height="22" viewBox="0 0 22 22" fill="none" xmlns="http://www.w3.org/2000/svg">
<g clip-path="url(#clip0_1467_296)">
<path d="M2.57614 2.42541L0.150732 2.40486L0.123326 4.83712L0.102772 7.26254L0.0822174 9.68795L0.061663 12.1202L0.0411087 14.5456L0.0205543 16.971L0 19.4033L2.42541 19.4239L2.40486 21.8493L4.83712 21.8698L7.26254 21.8904L9.68795 21.9178L12.1202 21.9383L14.5456 21.9589L16.971 21.9794L19.4033 22L19.4239 19.5746L16.9984 19.5472L14.5662 19.5266L12.1408 19.5061L9.7085 19.4855L7.28309 19.465L4.85768 19.4444L4.87823 17.0121L2.44597 16.9984L2.46652 14.5662L2.49393 12.1408L2.51448 9.71535L2.53504 7.28309L2.55559 4.85768L4.981 4.87823L5.00156 2.44597L7.43382 2.47337L9.85923 2.49393L12.2846 2.51448L14.7169 2.53504L17.1423 2.55559L17.1218 4.981L19.5472 5.00156L19.5266 7.43382L19.5061 9.85923L19.4855 12.2915L19.465 14.7169L17.0396 14.6964L17.0601 12.2641L17.0807 9.83868L17.1012 7.41327L14.6758 7.38586L14.6964 4.96045L12.2641 4.93989L9.83868 4.91934L7.41327 4.89879L7.38586 7.3242L4.96045 7.30364L4.93989 9.73591L4.91934 12.1613L4.89879 14.5867L7.3242 14.6073L7.30364 17.0396L9.73591 17.0601L12.1613 17.0807L12.1819 14.6552L9.75646 14.6278L9.77702 12.2024L7.34475 12.1819L7.36531 9.75646L9.79757 9.77702L9.81812 7.34475L12.2435 7.36531L12.223 9.79757L14.6484 9.81812L14.6278 12.2435L12.2024 12.223L12.1819 14.6552L14.6073 14.6758L14.5867 17.1012L17.019 17.1218L19.4444 17.1423L21.8698 17.1629L21.8904 14.7375L21.9178 12.3121L21.9315 9.87979L21.9589 7.45438L21.9794 5.02211L22 2.5967L19.5746 2.57614L19.5951 0.150732L17.1629 0.130178L14.7375 0.102772L12.3052 0.0822174L9.87979 0.061663L7.45438 0.0411087L5.02211 0.0205543L2.5967 0L2.57614 2.42541Z" fill="#283618"/>
</g>
<defs>
<clipPath id="clip0_1467_296">
<rect width="22" height="22" fill="white"/>
</clipPath>
</defs>
</svg>
