<svg width="23" height="23" viewBox="0 0 23 23" fill="none" xmlns="http://www.w3.org/2000/svg">
<path d="M17.4007 11.4933H14.2159H11.0289H7.8418V13.7938H11.0289H14.2159H17.4007V11.4933Z" fill="#283618"/>
<path d="M12.445 11.4933V9.19277V6.88997V4.58948H10.1445V6.88997V9.19277V11.4933H12.445Z" fill="#283618"/>
<path d="M15.7493 6.89227H17.4004V4.58948H15.7493H14.0982H12.4448V6.89227H14.0982H15.7493Z" fill="#283618"/>
<path d="M12.445 4.58716H10.1445V11.4932V20.7021H12.445V4.58716Z" fill="#283618"/>
<path d="M17.4004 6.89233H15.1621V9.13065H17.4004V6.89233Z" fill="#283618"/>
<path d="M19.9245 22.192V19.7257H22.377C22.377 19.7257 22.3862 19.7257 22.3908 19.7257V2.46169L19.9245 2.4686V0H2.66502V2.46629H0.19873V19.7257H2.66502V22.192M19.9245 19.7257H2.66502V2.46629H19.9245V19.7257Z" fill="#283618"/>
</svg>
