<svg width="23" height="23" viewBox="0 0 23 23" fill="none" xmlns="http://www.w3.org/2000/svg">
<path d="M20.2845 22.3809V19.8938H22.7577C22.7577 19.8938 22.7669 19.8938 22.7715 19.8938V2.48241L20.2845 2.48932V0H2.87764V2.48702H0.390625V19.8938H2.87764V22.3809M20.2845 19.8938H2.87764V2.48702H20.2845V19.8938Z" fill="#283618"/>
<path d="M18.8565 4.53418H16.3672V7.0212H18.8565V4.53418Z" fill="#283618"/>
<path d="M14.0693 8.74825V11.2376V13.6325H11.58H9.09528V11.2376V8.74825H11.58H14.0693V6.26123H11.58H9.09298V8.74825H6.60596V11.2376V13.7246H9.09298V16.1195H11.58H14.0693V13.7246H16.5563V11.2376V8.74825H14.0693Z" fill="#283618"/>
</svg>
