<svg width="23" height="23" viewBox="0 0 23 23" fill="none" xmlns="http://www.w3.org/2000/svg">
<path d="M7.83307 7.41724H5.34375V9.90425H7.83307V7.41724Z" fill="#283618"/>
<path d="M17.7491 14.8323H15.2598V17.3193H17.7491V14.8323Z" fill="#283618"/>
<path d="M15.2388 17.3193H12.7495V19.8064H15.2388V17.3193Z" fill="#283618"/>
<path d="M15.2598 14.8323H12.7705V17.3193H15.2598V14.8323Z" fill="#283618"/>
<path d="M15.2598 12.343H12.7705V14.83H15.2598V12.343Z" fill="#283618"/>
<path d="M17.7491 12.343H15.2598V14.83H17.7491V12.343Z" fill="#283618"/>
<path d="M12.7496 19.8064H10.2603V22.2934H12.7496V19.8064Z" fill="#283618"/>
<path d="M7.81256 19.8064H5.32324V22.2934H7.81256V19.8064Z" fill="#283618"/>
<path d="M10.2628 19.8064H7.77344V22.2934H10.2628V19.8064Z" fill="#283618"/>
<path d="M5.35993 2.48706H2.87061V4.97408H5.35993V2.48706Z" fill="#283618"/>
<path d="M12.7496 17.3193H10.2603V19.8064H12.7496V17.3193Z" fill="#283618"/>
<path d="M12.7706 14.8323H10.2812V17.3193H12.7706V14.8323Z" fill="#283618"/>
<path d="M12.7706 12.343H10.2812V14.83H12.7706V12.343Z" fill="#283618"/>
<path d="M10.2628 17.3193H7.77344V19.8064H10.2628V17.3193Z" fill="#283618"/>
<path d="M10.2833 14.8323H7.79395V17.3193H10.2833V14.8323Z" fill="#283618"/>
<path d="M10.2833 12.343H7.79395V14.83H10.2833V12.343Z" fill="#283618"/>
<path d="M5.35993 4.9303H2.87061V7.41731H5.35993V4.9303Z" fill="#283618"/>
<path d="M12.7706 7.41724H10.2812V9.90425H12.7706V7.41724Z" fill="#283618"/>
<path d="M17.7491 7.41724H15.2598V9.90425H17.7491V7.41724Z" fill="#283618"/>
<path d="M15.2598 7.41724H12.7705V9.90425H15.2598V7.41724Z" fill="#283618"/>
<path d="M15.2344 4.9303H12.7451V7.41731H15.2344V4.9303Z" fill="#283618"/>
<path d="M12.7452 4.9303H10.2559V7.41731H12.7452V4.9303Z" fill="#283618"/>
<path d="M20.2359 12.343H17.7466V14.83H20.2359V12.343Z" fill="#283618"/>
<path d="M17.7237 4.9303H15.2344V7.41731H17.7237V4.9303Z" fill="#283618"/>
<path d="M20.2105 4.9303H17.7212V7.41731H20.2105V4.9303Z" fill="#283618"/>
<path d="M10.2833 9.9043H7.79395V12.3913H10.2833V9.9043Z" fill="#283618"/>
<path d="M15.2047 2.44092H12.7153V4.92793H15.2047V2.44092Z" fill="#283618"/>
<path d="M2.87067 0H0.381348V2.48702H2.87067V0Z" fill="#283618"/>
<path d="M17.6939 2.44092H15.2046V4.92793H17.6939V2.44092Z" fill="#283618"/>
<path d="M22.67 4.9303H20.1807V7.41731H22.67V4.9303Z" fill="#283618"/>
<path d="M20.1807 2.44092H17.6914V4.92793H20.1807V2.44092Z" fill="#283618"/>
<path d="M10.2833 7.41724H7.79395V9.90425H10.2833V7.41724Z" fill="#283618"/>
<path d="M20.2359 7.41724H17.7466V9.90425H20.2359V7.41724Z" fill="#283618"/>
<path d="M20.2359 14.8323H17.7466V17.3193H20.2359V14.8323Z" fill="#283618"/>
<path d="M7.80768 4.9303H5.31836V7.41731H7.80768V4.9303Z" fill="#283618"/>
<path d="M7.83307 9.9043H5.34375V12.3913H7.83307V9.9043Z" fill="#283618"/>
<path d="M5.38532 7.41724H2.896V9.90425H5.38532V7.41724Z" fill="#283618"/>
<path d="M17.7281 17.3193H15.2388V19.8064H17.7281V17.3193Z" fill="#283618"/>
<path d="M5.38532 9.9043H2.896V12.3913H5.38532V9.9043Z" fill="#283618"/>
<path d="M7.83307 12.343H5.34375V14.83H7.83307V12.343Z" fill="#283618"/>
<path d="M12.7706 9.9043H10.2812V12.3913H12.7706V9.9043Z" fill="#283618"/>
<path d="M15.2598 9.9043H12.7705V12.3913H15.2598V9.9043Z" fill="#283618"/>
<path d="M17.7491 9.9043H15.2598V12.3913H17.7491V9.9043Z" fill="#283618"/>
<path d="M20.2359 9.9043H17.7466V12.3913H20.2359V9.9043Z" fill="#283618"/>
<path d="M2.87067 2.48706H0.381348V4.97408H2.87067V2.48706Z" fill="#283618"/>
<path d="M2.87067 4.9303H0.381348V7.41731H2.87067V4.9303Z" fill="#283618"/>
</svg>
